<?xml version="1.0" standalone="no"?>
<!DOCTYPE svg PUBLIC "-//W3C//DTD SVG 1.1//EN" "http://www.w3.org/Graphics/SVG/1.1/DTD/svg11.dtd" >
<svg xmlns="http://www.w3.org/2000/svg">
<metadata></metadata>
<defs>
<font id="ParisBlack" horiz-adv-x="1024" >
<font-face units-per-em="2048" ascent="1536" descent="-512" />
<missing-glyph horiz-adv-x="870" />
<glyph horiz-adv-x="0" />
<glyph horiz-adv-x="2048" />
<glyph unicode="&#xd;" horiz-adv-x="1280" />
<glyph unicode=" "  horiz-adv-x="870" />
<glyph unicode="&#x09;" horiz-adv-x="870" />
<glyph unicode="&#xa0;" horiz-adv-x="870" />
<glyph unicode="!" horiz-adv-x="250" d="M13 333v69q5 25 5 66l-3 16v188q0 27 7 86q22 202 22 294v130q0 39 2 80v26q5 60 5 135v85l-2 15v213q7 24 7 140h85q0 -108 -8 -148v-205l3 -15v-85l-3 -43v-118q-2 -27 -2 -160.5t-9 -232.5t-9 -115l-5 -40q-3 -23 -3 -47v-73q3 -8 3 -46v-120q0 -25 -6 -57v-51z M15 125v36l82 -2v-75q-19 -12 -46 -12q-5 0 -3.5 -4t1.5 1h-18q-16 16 -16 56z" />
<glyph unicode="&#x22;" horiz-adv-x="389" d="M77 1784v59h89v-59q0 -76 23 -189l11 -118h-87l-11 103l-2 12q-23 83 -23 192zM212 1843h90q13 -219 41 -327l-84 -3q-33 165 -47 330z" />
<glyph unicode="$" horiz-adv-x="775" d="M12.5 395q0.5 9 0.5 15v20q0 3 2 8v41h87v-46l-2 -11v-12l2 -6q9 -109 82 -192q41 -54 85 -58q10 -3 20 -3h21v26q-5 33 -5 92l-3 20v287q0 28 3 61l2 23q10 94 23 297q-30 34 -48 62l-39 77q-108 193 -146 358q-8 33 -7 74q0 102 69 174t166 103q5 3 13 2l2 23v36l3 88 v33h87q0 -107 -5 -154v-18h8q90 0 153 -38h-2q5 -5 25.5 -15t60 -47.5t39.5 -111.5h-89q7 42 -60 87q-56 38 -127 38h-11v-146l3 -20v-195l-8 -282v-52q0 -23 3 -55q5 -10 14 -19t22 -28q36 -56 53 -86l6 -21l23 -30q44 -82 74.5 -184.5t30.5 -196t-51 -180.5 q-66 -110 -193 -161v-48q0 -50 -2.5 -91t-2.5 -53l-84 25q5 47 5 162h-39q-57 0 -100 35.5t-63 63.5h2l-15 21q-28 41 -54 88.5t-31 105.5q-3 5 -2.5 14zM177 1528q0 -118 156 -414q0 86 5 146v12q2 33 2 187v103l-2 20l-5 131q-72 -20 -114 -69t-42 -116zM389 502 q0 -44 5 -151v-164q0 -5 1.5 -4t1.5 -6l7 2h-2q90 38 122 101t32 140q0 134 -93 328l-25 38l-16 28l-10 23q0 -27 -5 -49l-8 -81v-16l-2 -13v-10q-3 -13 -5.5 -39.5t-2.5 -54.5v-72z" />
<glyph unicode="%" horiz-adv-x="1144" d="M44 1434q0 55 10 71q26 59 79.5 116.5t88.5 71.5q49 20 108 20q31 0 64 -5l39 -18q3 -1 6.5 -3.5t20.5 -8.5q61 -23 80 -83q36 -47 36 -106q0 -125 -59 -201q-69 -98 -159 -108q-8 -3 -19 -2.5t-16 0.5q-163 0 -239 115q-40 54 -40 141zM54 41l33 59q0 5 5 15l77 151 q0 5 10 28v-2q5 15 16 33q15 53 105 205q24 45 46 113l122 230l29 59l41 74q5 10 12.5 24t12.5 25l62 120l33 59q31 48 49 82l17 25q21 27 49 82l243 453l69 -61l-117 -223q-86 -141 -123 -228l-26 -30q-5 -5 -7.5 -11.5t-9.5 -15.5q-22 -26 -52 -94l-31 -56 q-12 -20 -14.5 -31.5t-16.5 -29.5q-20 -27 -20 -34l-18 -30l-10 -21l-28 -48l-18 -34l-23 -38l-41 -79l-23 -49q-8 -18 -19.5 -38.5t-16.5 -38.5l-100 -200q-68 -126 -125 -253l-59 -146l-15 -3q-15 -18 -36 -79l-49 3zM128 1431q0 -64 18 -82q59 -87 177 -87h2l10 5 q28 3 60.5 21t52.5 43q15 26 29.5 70.5t14.5 68.5q0 26 -16 84q-12 20 -59 46h3q-26 5 -31 10h3l-28 10q-50 13 -93 -2h-2q-82 -24 -133 -136q-8 -28 -8 -51zM520 479q0 92 55.5 171t151.5 95q13 10 44 10q79 0 161 -54q38 -28 58.5 -70t20.5 -88q0 -55 -6 -126.5 t-43.5 -118.5t-71.5 -62q-57 -24 -124 -24t-131 41q-115 74 -115 226zM607 494q0 -46 20.5 -92t60 -77t79 -31t75.5 23q23 10 46 37t28 62q13 91 13 122q0 63 -48 94q-52 41 -110 41h-11q-67 -20 -110 -76.5t-43 -102.5z" />
<glyph unicode="'" horiz-adv-x="376" d="M77 1477l118 266l43 105l92 -2l-51 -128l-51 -100q0 -15 -13 -28q-13 -26 -13 -28v-3q-15 -39 -41 -95z" />
<glyph unicode="(" horiz-adv-x="427" d="M54 1037q0 306 56 543l54 232q7 41 36.5 91t42.5 101l82 -2q-13 -56 -22 -80.5t-14 -39.5l-7 -21q-20 -33 -32 -74q-33 -114 -43 -163t-10 -54.5t-15 -71.5q-39 -173 -39 -430q0 -520 121 -971l25 -71q17 -56 41 -164l-84 -3l-21 72l-5 13v-3l-43 131q-123 422 -123 965z " />
<glyph unicode=")" horiz-adv-x="540" d="M36 1951l92 69l10 -49q33 -45 77 -123h-3l13 -15l18 -28l31 -64q52 -102 74.5 -239.5t25 -224.5t2.5 -169v-151q0 -122 -12 -302l-3 -38q-3 -10 -3 -19v-17q-13 -177 -46 -299v2l-10 -36l-8 -36l-10 -23v3l-8 -33q-38 -148 -58 -151l-21 -39l-38 -79l-103 5l57 100l43 82 l51 164v-3q5 26 11 33v-2l10 33q38 112 38 234q0 5 5 25v18l3 5q18 218 18 379v145q0 191 -16 290q-32 208 -81 310l-41 79l-6 13v-3q-45 77 -69 105h3z" />
<glyph unicode="*" horiz-adv-x="532" d="M23 1567l38 15h-2q73 22 110 41l-33 26l-95 66l3 108l128 -98q5 -3 10 -5t10 -7l26 -23l5 10l13 59q-3 3 -1.5 9.5t11.5 56.5h87l-31 -135q114 90 164 143l5 -105l-3 -13q-61 -71 -135 -107q44 -34 112 -67l-2 -95q-73 27 -149 87v-2q0 -51 23 -131h-92q-15 62 -15 131 v13q-25 -14 -102 -41l-82 -36z" />
<glyph unicode="+" horiz-adv-x="706" d="M56 973v84h246v64q4 16 11 109.5t27 167.5l93 -5q-26 -82 -33 -143l-13 -129v-64l137 19q26 2 44 2h67v-85h-67l-192 -20l-2 -16v-10q-13 -87 -13 -256v-82h-87v82q0 198 15 274v8h-233z" />
<glyph unicode="," horiz-adv-x="320" d="M-82 -269l92 195l46 89l31 85v-3l10 31l100 -3l-69 -166l-118 -230z" />
<glyph unicode="-" horiz-adv-x="721" d="M33 1009h272q31 -6 52.5 -5.5t31.5 0.5h274v-90h-276l-351 2z" />
<glyph unicode="." horiz-adv-x="217" d="M41 41l15 107l52 -2h46q0 -68 -13 -105h-100z" />
<glyph unicode="/" horiz-adv-x="640" d="M74 -164l18 87l16 82l15 97v3q0 3 2 8v18q3 15 4.5 33t6.5 31l43 220v9q0 4 10.5 51t15.5 67q9 36 24.5 102.5t36.5 149t32.5 137t19 96t16.5 90t18 98.5t19 96q0 18 5 28v-3q5 20 5 36l26 126q6 50 19.5 118t18.5 120l26 105q3 18 6.5 34.5t7.5 32.5q14 58 14 84h82 q-13 -133 -23 -172l-8 -25q-6 -11 -9 -40.5t-9 -41.5l-23 -121l-17 -105q-7 -51 -47 -238l-33 -164l-23 -135q-38 -198 -64 -282l-5 -25q-5 -15 -5 -18l-31 -118q-5 -13 -7.5 -24.5t-4 -28t-5 -28t-3.5 -19.5l-36 -220l-10 -72l-21 -115q-9 -76 -38 -164h-85z" />
<glyph unicode="0" horiz-adv-x="862" d="M118 905v370q0 146 25 246v43q3 18 5.5 36t11.5 46.5t39.5 74t74.5 79.5q79 48 149.5 48t105 -12.5t65.5 -30.5q50 -38 87 -121q31 -70 31 -212q7 -83 7 -120v-16l3 -89l5 -201v-55q0 -147 -5 -389v-34l2 -23v-49q0 -15 -2.5 -35.5t-7.5 -71.5t-16 -99 q-31 -143 -114 -226q-36 -23 -77 -43.5t-95 -20.5q-97 0 -171 56q-49 32 -85 100q-36 95 -36 297v333zM202 888q0 -56 3 -102v-159l2 -41v-133q0 -137 14 -192q27 -106 76 -148q33 -26 91 -26q94 0 142 46h-3q110 143 110 346q3 15 3 23v13l-3 12v77q6 194 6 387l-8 322 l2 13l-5 72q-3 13 -2.5 25.5t-3.5 42t1 34.5q-5 25 -5 67q-21 94 -64 156q-63 41 -118 41q-105 0 -156 -80q-34 -36 -48 -117q-3 -13 -4.5 -17t-1.5 -9v-5l-5 -46q-23 -90 -23 -215v-387z" />
<glyph unicode="1" horiz-adv-x="593" d="M-3 1395l198 210l17 21q51 51 86 97q51 67 89 105l15 15l66 -5v-123l-2 -20v-254q0 -143 -8 -276l-2 -23v-62q-5 -82 -5 -160q0 -135 4 -182t3.5 -84t-0.5 -54v-40q0 -25 -2 -43v-56l7 -90v-20l-7 -162v-39q0 -25 -3 -40l-2 -26v-76h-62l-25 2q5 73 12 346v15q0 32 -5 54 q-3 13 -2.5 33.5t0.5 33.5v35q5 20 5 37v92q0 28 -4 64q-6 54 -6 165t5 188v46l2 25v21q8 133 8 276v236q0 8 1 7.5t-1 5.5q-42 -58 -123 -139h3l-75 -89l-133 -131z" />
<glyph unicode="2" horiz-adv-x="768" d="M18 -3l2 67l26 49l8 20q11 41 27 81t36.5 93.5t42.5 90.5q35 61 86 183l82 151l33 54q5 13 14 25.5t14 25.5q81 114 120 236q0 5 3 10l28 72q25 59 39 128q3 49 10 61l13 67q8 33 7 56v15q-3 41 -5 82t-14 77q-24 75 -86 102q-46 18 -116 18q-139 0 -204 -59 q-51 -51 -51 -184q0 -76 26 -174l-95 23q-13 78 -13 148q0 160 59 239q106 92 261 92q108 0 162 -20q104 -39 140 -154q13 -38 15.5 -87t5.5 -93v-25q0 -26 -6.5 -56.5t-11.5 -52.5q-7 -29 -12 -77q-8 -61 -39 -139l-3 -5l-2 -16q-23 -52 -26 -79q-33 -98 -126 -230 q-13 -26 -33 -58t-33 -58l-51 -112q-5 -10 -11 -13q-23 -60 -33 -74l-74 -146q-16 -26 -44 -103q-7 -7 -7 -20l-16 -41q-27 -54 -43 -100v-3q25 0 61 6h36q56 7 90 7h55q22 0 34 -5h177t92 -2v-95q-70 13 -138 13h-143q-9 2 -63 2t-106 -7h-39q-52 -6 -112 -6h-49z" />
<glyph unicode="3" horiz-adv-x="691" d="M51 292h82q9 -149 56 -182q40 -26 69 -26h38q11 0 32 2q36 2 112 78h-2q28 31 44.5 69t16.5 64v223l3 25v41l-3 10v121q-8 96 -36 133h3q-28 28 -91 59t-139 48h-11q-43 13 -117 13l-47 5q13 72 39 108l51 77q39 45 102 148q50 67 123 241l16 37q5 11 10 20q9 15 18 40 q8 13 20.5 27t30.5 42l28 44l5 2h-112l-11 3q-13 0 -23 -3h-143q-79 0 -161 -10v85q74 10 161 10h125q10 5 27 5h36q20 0 40 -5h87.5t53.5 -3h38l-2 -48q-18 -31 -29.5 -51.5t-28.5 -37t-28.5 -38.5t-31.5 -58l-62 -138q-72 -148 -112 -212l-34 -52l-41 -53q-10 -13 -19 -26 t-17.5 -24.5t-19 -24t-20.5 -28.5l74 -10q95 -20 173 -61t111 -81q49 -59 49 -183v-121l2 -10v-64l-2 -28v-197q0 -104 -64 -174q-116 -116 -187 -123q-10 -3 -29 -3h-28q-36 0 -69 10.5t-79 48.5q-68 79 -77 236z" />
<glyph unicode="4" horiz-adv-x="704" d="M18 742q35 60 69 192q3 10 6.5 19.5t6.5 19.5l10 51l8 23q50 141 71 185.5t31 69t23 52.5l28 72l39 84l13 21q0 10 5 15l15 46l31 82q18 61 89 182l69 -3v-110q-5 -102 -5 -248v-293q0 -114 3 -224l-3 -205q3 0 3 -2h120v-82h-118v-379q0 -197 8 -307h-87q-5 67 -5 153 v533h-95q-17 -5 -94 -5h-75l-18 2h-72q-43 0 -71 3zM125 768h70l10 -3h81t54 3l21 3h87v15l-3 13v56q-2 13 -2 123l-3 241v378q-5 -13 -14 -35.5t-14 -38.5l-48 -115q-55 -139 -81 -195q-42 -88 -73 -192q-3 -3 -3 -6t-10 -19h3q-5 -10 -5 -13l-11 -31l-12 -41 q-5 -16 -19.5 -63t-27.5 -80z" />
<glyph unicode="5" horiz-adv-x="704" d="M77 965v313q0 66 2 122q5 23 5 41v95l-2 10v13q-3 20 -3 46v233h116l10 -2h59q20 -3 40 -3h81t63 3t51 2.5t42 -0.5t86 21v-93q-28 -7 -98.5 -9.5t-146.5 -2.5h-122t-60 2h-21l-7 3h-8v-169l2 -10v-140q0 -27 -2 -47l-3 -125v-106l-2 -23v-18l7 -74q302 0 397 -139 q38 -56 43.5 -168.5t5.5 -189.5v-46q0 -74 -2.5 -125t-20.5 -131q-8 -74 -69 -164q-71 -84 -162 -84h-18q-104 0 -176 46q-79 56 -80 177v48h82v-48q0 -82 44 -113q53 -23 130 -23h18q54 0 100 51q26 29 40 96.5t19 95.5t7.5 52.5t2.5 49.5v118q0 193 -28 292q-10 26 -61 72 q-5 3 -13 4q-14 2 -23 11q-122 31 -241 31z" />
<glyph unicode="6" horiz-adv-x="686" d="M51 412q0 200 26 382l23 128l36 115q0 13 7 20h-2q33 110 84 220l8 21q13 31 28 68t28 68l75 161q114 199 192 276l51 -64q-74 -74 -141 -215q-28 -56 -55 -108.5t-38.5 -85.5t-27 -73t-22.5 -60l-11 -21q-54 -100 -84 -210l-10 -30l-3 -13l-3 -5v-3l-25 -92 q-5 -20 -11.5 -39.5t-11.5 -63.5q70 39 143 39q69 0 146 -33q147 -91 151 -267v-18q0 -160 -36 -322q-22 -62 -30 -79q-44 -49 -106.5 -78.5t-116.5 -32.5q-89 0 -167 67v3q-64 56 -84 151q-13 99 -13 194zM133 429q0 -117 15 -191q17 -59 57 -110h5q23 -15 48.5 -29.5 t58.5 -13t75.5 17t63.5 40.5l12 23q0 2 17 62.5t23 100.5q12 80 12 180v18q-3 59 -27.5 110.5t-70.5 71.5q-62 31 -116 31q-110 0 -160 -103q-13 -143 -13 -208zM164 786l2 2h-2v-2z" />
<glyph unicode="7" horiz-adv-x="650" d="M46 5q29 139 92 348l18 54q0 5 5 18l8 23q77 236 93.5 315t26.5 125l8 54q0 15 8 21l12 66q11 66 31 123l16 49q0 20 10 41l7 25l21 64q35 98 46 146l31 123q34 107 41 151v3q0 3 2 5v2h-202q-159 0 -264 -7v84q86 8 264 8h79l190 -5q23 -23 23 -50t-8 -60l-8 -26 q0 -5 -2 -8l-13 -69l-38 -141l-8 -25q-34 -137 -61.5 -214.5t-40.5 -125t-26 -90.5l-74 -354q-18 -82 -39 -135l-38 -126v3q-5 -15 -10 -32t-10 -32l-8 -36q-70 -207 -100 -323l-41 6z" />
<glyph unicode="8" horiz-adv-x="652" d="M56 1511.5q0 103.5 15.5 176.5t56.5 114q80 51 189 51h21q49 -3 86 -9t80 -32q20 -20 41 -42t27 -44q12 -42 12 -95l-8 -108l-3 -7q-3 -41 -7.5 -111.5t-15.5 -112.5q-16 -56 -61 -125q-5 -10 -13 -22.5t-15 -25.5l-87 -126l-16 -20l29 -31l28 -38q127 -158 141 -264 q10 -56 10 -131v-117l-3 -13v-33q0 -101 -9 -142q-22 -101 -80 -145v2q-67 -61 -195 -61q-61 0 -90 13q-28 5 -48.5 24t-25.5 37q-18 33 -31 74q-15 48 -15 164v16l-2 18v35l-3 18v16q-5 47 -5 115v36q0 122 87 235q53 68 105 177q-5 8 -10 14t-11 14l-12 23 q-120 165 -151 300q-11 79 -11 182.5zM138 1505q0 -67 16 -161q27 -93 117 -251l25 -35q6 -8 11 -14q15 23 30.5 45t23.5 35l13 18l18 30q55 75 67 130t19.5 120t13.5 99q10 61 10 92q0 45 -7.5 72.5t-15.5 34.5q-8 8 -16 21q-29 15 -125 28h-23q-80 0 -123 -28 q-54 -54 -54 -236zM140.5 558q0.5 -15 0.5 -48.5t7 -89.5v-18q8 -35 8 -85q0 -134 28 -197q-3 3 12 -8q35 -25 78 -25q92 0 151 41l-8 -8q57 37 57 226v33l2 13v117q0 66 -6 113q-11 73 -76 169q-23 23 -48 67l-31 41q-5 -8 -13 -16l-13 -18v3l-20 -31q-5 -18 -41 -59h2 l-18 -25q-45 -59 -69 -167q-3 -13 -2.5 -28z" />
<glyph unicode="9" horiz-adv-x="675" d="M46 1306v15q0 85 16.5 195t25.5 142q20 65 48 96h-3q73 85 213 92q77 0 166 -69q47 -47 67 -115.5t22.5 -119t2.5 -123.5t-5.5 -134.5t-6.5 -72.5t-1 -27l-10 -53q0 -15 -2 -24l-3 -30q-5 -22 -5 -41l-13 -41q-5 -20 -5 -23l-8 -44l-5 -20l-18 -44l-13 -38 q-44 -143 -69 -205l-82 -210l-18 -41q-15 -45 -56 -121q-79 -147 -182 -260l-38 46v41q42 45 118 171l25 46l41 85q26 52 34 84l51 123q23 61 46 128t46 133l5 21l13 46q5 18 7.5 29.5t7.5 16.5l8 26q3 13 4 23t6 15l5 28q-62 -48 -146 -48q-67 0 -140 35q-142 85 -149 267z M128 1306q6 -134 102 -187q43 -28 93 -28q126 0 184 112q13 144 13 210q0 143 -16 200v-3q-21 74 -50 101q-54 50 -108 50h-3q-36 -3 -77 -19.5t-64 -36.5q-5 -13 -14 -33.5t-14 -33.5l-23 -105q-23 -77 -23 -212v-15z" />
<glyph unicode=":" horiz-adv-x="279" d="M92 49q0 33 5 43v-2q5 17 5 53q32 0 50.5 -4t34.5 -6l-3 -59q-5 -5 -5 -10v-31zM92 686l5 26q5 26 5 33l3 38l41 5l41 3v-72l2 -30z" />
<glyph unicode=";" horiz-adv-x="284" d="M-82 -266l92 192l46 89l31 85v-3l10 31l100 -3l-69 -166l-79 -159l-41 -76zM92 663l21 118l64 -3h20q0 -64 -8 -79v-36h-97zM92 663l21 118l64 -3h20q0 -64 -8 -79v-36h-97z" />
<glyph unicode="&#x3c;" horiz-adv-x="499" d="M5 957l95 111l33 35h-2l46 52l212 215l56 -72l-84 -77l-79 -79l-44 -51q-23 -20 -38.5 -39.5t-15.5 -22.5l-41 -41q-12 -12 -12 -18l-16 -15v-8l113 -133h-3l95 -110q-5 8 5 -2.5t19 -20.5q54 -60 114 -120l-51 -46l-20 -16l-100 113l-13 20l-44 46h3l-27 27 q-19 19 -34 40h2l-23 28l-20 18l-49 56z" />
<glyph unicode="=" horiz-adv-x="972" d="M95 899h376l26 -3h366v-82h-389l-31 3h-274zM128 1106v87h366l15 3h49l248 -6h62l-3 -87h-61l-248 5h-29l-12 -2h-387z" />
<glyph unicode="&#x3e;" horiz-adv-x="522" d="M28 1257l41 87q49 -22 62 -33l30 -34q46 -54 92 -99l26 -23l82 -82l51 -64l54 -49l23 -23l-41 -41q-41 -29 -77 -79q-5 -5 -7.5 -11.5t-7.5 -9.5l-10 -15l-93 -108h3l-14 -17q-6 -8 -19 -35q-22 -47 -151 -155l-26 95q62 54 126 125q37 71 112 146h-2l15 28q3 5 6.5 7.5 t6.5 8.5l51 61l-28 33h2l-189 192l-59 64q-24 24 -59 31z" />
<glyph unicode="?" horiz-adv-x="614" d="M41 1590q0 52 5 84v18l3 10l2 29q0 23 27 53.5t47 40.5l49 18q40 18 102 18t99.5 -20.5t55 -43.5t27.5 -61v-16l3 -23q5 -20 5 -57.5t-28 -105t-62 -123.5l-46 -75q-34 -52 -65.5 -125.5t-36.5 -128.5t-5 -100v-77q0 -32 2 -60v-428l-2 -18v-98q0 -45 -3 -68h-61l-31 31 q8 58 8 125v46q5 25 5 38v254l-3 15v103q-2 19 -2 108t7.5 160.5t40.5 138.5l8 -3q32 73 50.5 99.5t25.5 40.5q26 48 30 54t18 32q60 111 60 186q0 41 -10 67v-3l-23 41v-2q-54 15 -73 15t-50 -10v3q-8 -8 -28 -15q-41 -13 -47.5 -31t-7.5 -32t-1 -24.5t-3 -15.5v2 q-5 -13 -5 -69zM118 69v10q7 45 7 69q35 0 53.5 -4t36.5 -6l-3 -59q-5 -5 -5 -7v-31h-59z" />
<glyph unicode="@" horiz-adv-x="1507" d="M51 910q0 114 26 206q44 164 161.5 289.5t270.5 186.5q104 34 214.5 34t231 -47.5t211.5 -126.5t148.5 -191t57.5 -229q0 -106 -36 -182q-91 -228 -235 -302l-41 -28q-43 -28 -97 -28t-80 51q-23 33 -28 105q-20 -23 -72 -75q-36 -28 -91 -51t-97 -23q-82 0 -157 44 q-56 36 -79.5 98.5t-23.5 99.5v57q0 21 7 58q27 132 103 250q100 145 254 184q64 15 141 15.5t148 -61.5q3 0 8 13q9 24 15 31l74 -75q-42 -59 -76 -174v3q-3 -8 -7 -16q-9 -16 -9 -28q-56 -230 -56 -313t13 -101h-3q3 -3 13 -3q25 0 61 13q7 6 34 23q72 41 116.5 114 t80.5 147q33 97 33 178t-51 172q-102 180 -308 268q-102 43 -198 43t-167.5 -29.5t-129 -74.5t-109.5 -101q-105 -117 -158 -241q-23 -84 -23 -161t10 -138.5t31 -120.5q45 -131 118 -202v3q165 -118 352 -164q62 -16 116 -16h23q67 5 148.5 31t131.5 63q105 77 199 219 l61 -49q-83 -125 -212 -238q-64 -51 -155 -78t-170 -32h-26q-133 0 -276.5 55t-245.5 145q-146 137 -184 367q-11 70 -11 133zM427.5 791q0.5 -13 0.5 -41.5t12.5 -73t45.5 -69.5q46 -23 108 -23t146 71v-2q89 89 143 261v-3l13 57q10 26 10 39.5t5 29.5l16 51l7 28 q0 5 6 10q-13 50 -41 75q-20 15 -57 15q-68 0 -123 -10q-59 -20 -116.5 -61.5t-85.5 -87.5q-71 -136 -87 -240q-3 -13 -2.5 -26z" />
<glyph unicode="A" d="M36 3q17 165 54 273v-2q29 103 41 192q23 167 94 410l87 302q13 36 22 73t19 70l28 84l13 47q16 41 34 76q8 26 11.5 47.5t8.5 42.5l8 31q8 26 7 51l8 20q29 105 36 190l69 5l38 -167l8 -48l44 -202l28 -159l5 -31q3 -18 4 -34.5t6 -31.5l8 -64l10 -59q53 -314 143 -674 q0 -12 13 -46q5 -13 7.5 -24t5.5 -24l10 -31v3l31 -105l20 -90q17 -68 52 -120h-100q-26 44 -32.5 73t-10.5 57.5t-14 58.5l-28 87q-10 31 -19 65.5t-22 78.5l-5 30q-81 331 -110 499q-49 0 -92 -5h-18l-20 -2h-87l-31 -3l-49 3q-13 0 -23 5l-15 -39l-13 -46l-5 -20 q-66 -211 -103 -412l-17 -82l-3 -16q-3 -5 -3 -10l-12 -71l-8 -31q-25 -96 -41 -228zM361 1034q3 -2 23 -2h100l23 2q36 5 65.5 6.5t77.5 6.5l-10 56q-5 31 -9 59t-9 52.5t-7.5 42.5t-5.5 36l-28 161l-23 133q-10 38 -18 74q-5 -13 -5 -19t-3 -19v-15q-8 -81 -20 -105 l-36 -103q-5 -13 -10 -28t-10 -28l-18 -56q-46 -122 -77 -254z" />
<glyph unicode="B" horiz-adv-x="780" d="M97 49v20l8 77v36q5 33 6.5 81.5t1.5 100.5v337q-3 31 -3 76v141q0 14 -2 32v23q-6 46 -6 112v190l3 15q0 80 5 195v89l3 95v83q0 40 -3 84l3 38q50 8 84 8h92q61 0 89.5 -11.5t44 -20.5t38.5 -22l38 -21q53 -28 141 -128q82 -114 82 -304v-36q-8 -145 -202 -284l-11 -5 q20 -13 103 -90q55 -66 69 -141q8 -24 8 -78.5t-7 -92.5q-15 -90 -28 -126q-22 -55 -27 -71q-17 -52 -30.5 -74t-17 -26.5t-18.5 -27.5l-5 -3q-13 -20 -30 -48.5t-37 -46.5l-56 -53q8 8 -8 -13q-49 -46 -104 -88.5t-126 -62.5l-39 -11q-12 -2 -22 -2q-28 0 -33 17.5t-5 29.5 q0 4 1 7zM174 110q2 0 5 -5h-2q-3 3 -3 4q-1 1 0 1zM179 105q5 -5 8 -5q83 36 159 110h-3q13 13 36 34.5t33 31.5l18 16v-3q25 21 54 67l23 38l41 113q0 13 5 18l10 28q1 1 2 3t1 5q36 94 36 153q0 101 -26 141.5t-53 72.5q-51 61 -159 83h-23q-13 0 -18 3h-6q-3 0 -2 2h-13 l-10 -2h-18q-17 -5 -41 -5q-8 -5 -18 -5h-23v-11q5 -33 5 -93v-104l5 -182v-125l-2 -13v-114q0 -52 -3 -103l-8 -118l-2 -13v-20zM189 1285l3 -189q10 0 15 2q8 5 59 5q10 3 23 3h32t22 -1.5t23 -1.5t21 -2q20 5 53.5 16.5t48.5 16.5q51 33 96 87t50 118v36q0 165 -67 256 q-55 65 -105 92l-59 31q-5 3 -15 7.5t-15 10.5q-8 0 -16 7q-44 13 -69 13h-82q-3 0 -1.5 1.5t-3.5 1.5v-128q0 -153 -7 -198v-33q-6 -72 -6 -151z" />
<glyph unicode="C" horiz-adv-x="1615" d="M67 798q0 97 10 157q38 231 74 330q68 210 151 284q115 113 263.5 195t315.5 89h56l10 3h59q137 0 210 -20h-3q95 -20 177 -91t131 -163l-64 -61q-49 90 -118 147t-129 72q-99 26 -204 26l-15 -2h-105q-241 -18 -525 -259q-44 -49 -73 -118t-52 -135q-23 -54 -35 -114 t-24 -117l-8 -56l-3 -15q-3 -5 -2 -5v-3l-3 -10v-13q-7 -39 -7 -80v-54q0 -14 2 -32v-26q3 -36 5.5 -69t17.5 -79.5t53.5 -110.5t77.5 -110h-3q111 -111 195 -149q198 -89 340 -89h53q162 0 277 41q87 46 159 105v-2q77 77 77 123l92 -3q-4 -91 -87 -164q-53 -69 -202 -138 q-52 -26 -141.5 -36t-116 -11.5t-59.5 -1.5h-52q-94 0 -141 13h3q-173 46 -223 67q-132 64 -235 184h2q-49 54 -94.5 128t-61 124t-18 92.5t-5.5 82.5v24q-2 9 -2 50z" />
<glyph unicode="D" horiz-adv-x="1159" d="M97 1889l54 3q55 0 74 -8h23l154 -25q77 -28 164 -64t166 -99q159 -125 259 -319q31 -59 45 -120t26 -125l6 -21l5 -31q10 -62 10 -133q0 -47 -5 -97q-23 -136 -80 -246q-65 -141 -169 -256l-46 -43v2l-30 -31q-53 -53 -153.5 -112t-136.5 -74l-130 -59l-13 -5h3 q-22 -7 -100 -13h-13l-5 -3h-46l-18 18q-8 173 -8 456v210l3 33v243q0 136 -12 302q-12 159 -12 204l1 95v97q0 47 -2.5 83.5t-2.5 45.5q-5 10 -6.5 33t-4.5 59zM200 1797q5 -59 5 -118v-199q0 -41 2 -80l3 -82q8 -123 8 -348v-545q0 -216 10 -325q28 0 61 13h3 q65 18 130 53q121 55 190 113v-3l59 54q13 13 24.5 23.5t16.5 15.5l23 20v-2l7 10l34 31q59 59 140 215q38 86 72 220q5 30 5 85t-11 117q-13 66 -73 274q-110 198 -228 297v-3q-47 37 -162 80t-150 56q-69 18 -103.5 20.5t-37.5 5.5h-18q-3 0 -3 2h-7z" />
<glyph unicode="E" horiz-adv-x="842" d="M46 3l3 58q5 13 5 19v120q0 25 2 53v13q13 43 13 330v152q0 38 3 69v89l2 21v30l-2 16v97l-11 95q-10 56 -10 128l3 36v117q0 21 2 44l8 90l8 76v94l2 91v10l3 18v15h84l8 -2h211t142 -3l144 -8q10 -3 33 -2h15l64 2v-94q-8 -3 -18 -3h-43l-97 8h-11q-59 0 -98 5 q-64 8 -201 8h-141l-13 2q-2 -24 -2 -85v-82q0 -20 -6 -50l-7 -93v-93l-3 -76v-93q0 -32 13 -65l28 5q30 5 87 5l138 10h84l87 -8h106l-3 -87h-115q-13 0 -25.5 -1t-22.5 4h2q-18 5 -36 5h-77l-138 -10q-34 0 -65.5 -6.5t-36.5 -6.5h-10v-105l2 -8v-105l-2 -38 q-3 -31 -3 -68v-150q0 -191 -5 -270q-8 -109 -8 -178v-48h289t159 5h13l8 3h89l13 2h39v-87h-38q-12 0 -57 -5h-31q-98 -10 -218 -10h-64l-12 2h-185l-48 -7h-49z" />
<glyph unicode="F" horiz-adv-x="832" d="M95 28l5 90q0 8 10 13h-8q3 10 3 23v105l3 12v34l-3 15v166l3 13v35q0 22 4 54q8 76 8 213v59l-2 16v28q-5 55 -5 148v97l2 13l8 174v13l2 72q0 74 6 146l7 87q5 25 5 77v30q-2 24 -2 42q0 58 20 58h25l96 5q19 0 51 5h59l10 3h42l77 5h150l51 -5h56v-85q-8 -3 -18 -2 q-8 -3 -23 -3h-34q-14 0 -23 3t-20.5 2.5t-16.5 -0.5h-121l-104 -7h-80l-105 -8v-51q0 -39 -5 -72l-8 -84q-5 -36 -6.5 -77t-3.5 -85v-189q66 0 87 -5.5t27 -5t9 0.5h179l187 -13v-90l-197 16h-208q-3 0 -2 2h-18l-26 3q-22 5 -46 5v-46l-2 -15v-16q0 -85 4 -128 q4 -38 4 -68v-7q0 -32 -1 -69q-1 -102 -7 -167q-6 -60 -6 -79l1 -35l-3 -20v-167l3 -7v-39l-3 -7v-105l-5 -67q-5 -13 -5 -59h-87z" />
<glyph unicode="G" horiz-adv-x="1507" d="M36 927q0 211 72 373q23 51 47 101.5t60 88.5h-3l39 54q143 209 348 306q56 26 123 26q156 0 271 -38q39 -7 59 -21q24 -15 28 -15q5 -5 20.5 -10t25.5 -10l144 -98q14 -8 23 -12l20 -18q50 -42 62 -128l-90 -3q0 28 -18 47.5t-38 37.5v-3l-16 15v-2q-30 20 -66 38 l-15 18q-5 5 -14.5 9t-21.5 12l-28 15q-18 0 -26 10l-13 8l-56 20q-159 39 -227 39t-106 -18t-74 -38l-21 -11q-61 -36 -104.5 -85.5t-87.5 -103.5l-28 -31h3l-39 -46q-57 -79 -97 -197q-69 -157 -69 -333q0 -72 11 -154q18 -121 61 -263q26 -109 99 -190l39 -43 q41 -41 68 -53q40 -17 97.5 -58t103.5 -48l38 -7q0 -3 3 -3h7q59 -10 79 -10h3l5 2q49 3 80 16h12q49 13 67 21.5t37 12.5t28.5 6.5t9 4t21.5 8.5q93 27 129 57q52 55 118 205l5 17l31 72q5 20 15 45l21 52v17q0 12 5 24v16q3 20 4 42t10 47q14 38 14 98v38h-3q0 -5 -66 -5 h-174l-10 2l-100 11q-32 5 -46 5h-59l-16 -3h-79v90h129t63 -3l59 -5l72 -8h146t64 3q27 8 74 8l18 -34q15 -26 15 -64v-35q0 -58 -18 -134l-8 -53q-5 -56 -12 -75v3l-11 -33q-11 -42 -23 -87v2l-12 -36l-16 -41q-28 -59 -60 -121.5t-91 -121.5q-67 -58 -187 -87l-15 -5h2 l-25 -10q-35 -15 -100 -33l-28 -8q-8 -5 -24.5 -6.5t-31 -4t-24.5 -2.5h-15q-45 0 -87 10h-8q-3 0 -5 3l-41 8q-49 7 -120 53l-105 54q-56 33 -100 87l-28 33h3q-46 44 -82 108t-53 121q-41 146 -52 220q-18 131 -18 225z" />
<glyph unicode="H" horiz-adv-x="844" d="M90 1892l92 -3v-161l-3 -8l10 -115q6 -56 6 -95v-61l-8 -143q0 -74 5 -126v-23h164l10 3h34q17 0 33 2l38 5h23q22 5 56 5h31q18 6 41 6v5q0 177 -8 212v87l-5 184v82q-5 32 -5 74v54h87v-54q0 -33 3 -53l2 -21v-33q0 -85 5 -233v-84l3 -10l5 -164v-98q0 -76 -4 -123 q-6 -69 -6 -164t5 -150v-26q5 -33 5 -84l-2 -11v-132l7 -142v-268h-87v302q0 15 -2 36v10q-5 25 -5 112v85l2 8q0 51 -4 85q-6 52 -6 155t5 185v20q6 21 5.5 36t-0.5 33q-9 0 -36 -5h-28l-115 -15h-73q-37 0 -70 -3h-105v-8l2 -10v-604l3 -10v-23q0 -18 -3 -31v-92 q-2 -9 -2 -54v-18q2 -7 2 -48v-18q-2 -10 -2 -118h-87v192l-3 10l3 38v123q2 9 2 39l-2 10v655l-8 203q0 65 4 97.5t4 48.5v33q0 60 -3 91.5t-4 43t-4 25.5q-5 23 -5 83v8q0 8 3 12z" />
<glyph unicode="I" horiz-adv-x="268" d="M56 576v54q0 25 6 86q22 204 22 299v135l8 245v74l-2 16l7 376h87q0 -103 -7 -159v-217l2 -16v-74q0 -94 -4 -149q-4 -49 -4 -86q1 -5 1 -9v-118t-13 -244.5t-13 -245.5t5 -164v-87l3 -97v-64q0 -36 -3 -95l-90 2q6 56 6 157z" />
<glyph unicode="J" horiz-adv-x="417" d="M-189 -361l2 85h51q17 0 29.5 -4.5t20 -4t12.5 0.5l74 23q69 45 102 72h-2q53 63 66 140l11 52q3 10 2 30q-3 3 -2 13v38q7 28 7 208v74l3 28v73q0 157 5 221q6 58 6 110v10q-1 57 -1 133.5t-5 169.5v51l-3 144v240q0 104 -7 128v90q-3 0 -3 10v28q0 31 10 74l90 -2 q-13 -49 -13 -72v-41l3 -13v-79q7 -45 7 -117v-256q0 -67 3 -134v-13q5 -90 5 -196v-151l-10 -408l-3 -28v-74q0 -122 -5 -202v-72l-10 -46q-3 -10 -5.5 -43.5t-24 -83.5t-56.5 -83q-81 -78 -134 -97q-58 -33 -115 -36l-67 7z" />
<glyph unicode="K" horiz-adv-x="936" d="M54 -3q28 99 28 144v59l-3 7v26q5 38 5 95v20q-7 39 -7 93q0 84 4 107t3.5 38.5t-0.5 33.5v25l-2 15v75q0 65 5 112v26q5 60 5 133v177q0 110 -5 187v89l8 301v114h82l-8 -322v-135q0 -21 3 -55q3 -28 3 -60q-1 -5 -1 -11v-78l62 54l110 126q38 38 51 59l48 53l144 149 q50 43 123 118l89 97l64 -64l-64 -64h3l-33 -36l-136 -133q-83 -78 -179 -182h2l-92 -107h3l-67 -80l-51 -38q-20 -10 -46 -44q25 -17 51 -48h-3l34 -29l35.5 -35.5t28.5 -33.5l33 -56h-3l44 -59q28 -36 57.5 -88.5t41 -71.5t15.5 -24t4 -10q18 -28 27 -52q15 -39 19 -53v2 l87 -207l28 -46q10 -18 24 -41t20.5 -37t10.5 -24.5t15 -27.5q36 -56 56 -92.5t38 -69.5l-105 -5q-5 23 -25.5 61.5t-28.5 45.5l-41 64l-72 131l-138 310q-61 132 -100 179l-30 43h2q-13 8 -13 23q-3 3 -6.5 10.5t-5.5 10.5l-41 49l-52 48l-38 41v-69q0 -26 -2 -54l-3 -28 v-41q-5 -47 -5 -102v-54l2 -8v-89l-7 -110q0 -56 7 -110v-36q0 -63 -5 -98v-76l3 -13v-26q0 -18 -2.5 -39.5t-5 -44.5t-8.5 -39z" />
<glyph unicode="L" horiz-adv-x="814" d="M56 870v351l5 161l8 164q10 82 10 151.5t-20 150.5l89 3q18 -75 18 -155t-10 -152v-23l-2 -16v-15q-3 -15 -3 -26v-23q-3 -27 -10 -194v-26q-3 -31 -3 -59v-276l3 -16q0 -167 9 -296q16 -229 16 -331l-2 -15v-110q39 7 89 7h178q88 0 98.5 4.5t26 4t23.5 -0.5h30l11 3 l12 -3h80l-5 -87l-87 3q-8 -3 -22 -3h-19l-21 -2q-8 -3 -20.5 -3t-24 -1.5t-88.5 -1.5h-205q-16 0 -43.5 -6t-61.5 -6l-36 2q-3 18 -2.5 47.5t0.5 55.5v105l2 7q0 103 -9 228q-14 213 -14 399zM156 115v3q-2 -2 -2 -2.5t2 -0.5z" />
<glyph unicode="M" horiz-adv-x="1666" d="M56 1874l75 5q10 -15 22.5 -39.5t26.5 -49.5q26 -45 43 -81q28 -58 30 -71l23 -48l13 -23l11 -23q5 -10 7.5 -23t38.5 -85q90 -180 222 -558q33 -109 43.5 -153t21 -83.5t17.5 -70.5l5 -23q40 -198 77 -302q5 10 7.5 17.5t5.5 15.5l107 266l118 228q119 213 304 669 q85 212 129 429l82 -2q0 -496 7 -827q13 -550 13 -1042h-64l-25 26q0 520 -11 947l-2 23v69l-3 56q-5 82 -5 146v233q-53 -151 -199 -484l-13 -28q-28 -64 -141 -274l-26 -48q-20 -41 -39.5 -78.5t-34.5 -72.5q-13 -13 -23 -41.5t-21.5 -51.5t-11.5 -33l-44 -110 q-35 -102 -74 -171l-3 -18h-69l-2 28q-46 92 -75.5 207t-55.5 225l-18 72l-10 44q-26 115 -54 186q-42 128 -161 408l-67 161l-74 156l-2 3q7 -123 7 -258v-34v-341l-2 -28v-42q0 -27 -3 -65v-21l-2 -15v-13q-5 -112 -5 -242q0 -247 6 -308q5 -44 5 -78q0 -30 -4 -51v-71 h-84v54q5 37 5 53t-5 58q-8 67 -8 239.5t5 340.5v28l3 26q3 33 3 57v8q0 27 -1 42l3 28v341q0 328 -44 586z" />
<glyph unicode="N" horiz-adv-x="1131" d="M67 236q0 132 5 192q3 36 4 60t4 32q4 17 12 74l3 8q7 78 7 245v374q0 326 21 525l-3 41q-3 3 -1.5 8t1.5 10v43h90l51 -102l49 -95l15 -36v3q15 -20 21 -31l20 -36l128 -312q10 -20 18 -44.5t20 -52.5q16 -37 57 -125q84 -180 120 -276q55 -146 72 -183 q52 -142 105 -266q0 187 12 297q21 206 21 310v127q0 21 -3 44q0 94 -5 154v15q-5 85 -5 213v10q0 64 -7 141l-3 7q-5 31 -5 64v64q0 91 15 144l87 -3q-18 -64 -18 -134.5t8 -141.5v-39q8 -27 8 -102v-10q0 -143 7 -282l6 -100q3 -17 3 -39q-1 -4 -1 -8v-82q0 -70 -15 -252 q-21 -255 -21 -379v-179q0 -54 3 -93h-97l-57 174q-15 33 -30.5 73t-32.5 83q-32 76 -67.5 169t-64 160.5t-56.5 137.5l-53 138l-95 207l-10 28q-14 23 -32 73q-55 146 -99 232l-38 79l-46 72q-8 -110 -8 -220v-597q0 -83 -5 -235v-26l-10 -79q-11 -44 -13.5 -91.5 t-2.5 -160t26 -211.5l-90 -3q-25 107 -25 195z" />
<glyph unicode="O" horiz-adv-x="1656" d="M54 823.5q0 116.5 10 196.5q28 219 113 362q10 10 10 16l20 36q78 123 141 181l46 46v-2l51 46q79 60 120 82q127 67 203 74q8 0 23 3q25 5 77 5q75 0 164 -31l36 -13q46 -18 92 -37t105 -64q133 -102 187 -239q76 -255 76 -450q0 -402 -187 -656q-183 -229 -431 -310 q-86 -28 -159 -28q-104 0 -188 54l-23 13q-10 0 -13 7l-10 8l3 -3q-10 3 -18 10.5t-8 12.5q-32 25 -54 34l-18 12v-2l-20 13q-10 10 -28 18q-54 22 -108 76q-113 108 -162.5 260.5t-49.5 269zM138 824.5q0 -107.5 42.5 -242t139.5 -224.5q38 -36 73 -56t73 -41l110 -74 q96 -53 159 -56h5q137 0 296 92q138 80 234 205q72 107 123 276q48 161 48 305q0 91 -26.5 229.5t-48.5 213.5q-40 135 -158 207q-86 59 -262 107q-45 13 -64 13q-38 0 -60 -5q-13 -3 -24.5 -2.5t-32 -3.5t-70.5 -24.5t-86 -41.5q-81 -37 -135 -97l-36 -33l-31 -23v2 q-74 -65 -120 -158l-36 -52q-66 -108 -103 -337q-10 -72 -10 -179.5z" />
<glyph unicode="P" horiz-adv-x="860" d="M82 1570v138q0 82 23 140q26 18 55 18q52 0 78 -10h-2q5 -3 10 -3l25 -5q74 -13 120.5 -37t51.5 -24h8q59 -31 114 -69.5t99 -102.5q76 -113 76 -268q0 -85 -18 -177l-5 -26q-5 -20 -5 -33q-5 -15 -5 -20l-8 -54q-25 -103 -71.5 -174.5t-91 -102t-103.5 -53.5l-57 -26 q-5 -5 -14 -7q-4 -2 -23 -10.5t-32 -13.5t-33 -13l-62 -5l-30 -5v-174q0 -72 7 -133l6 -51q12 -106 12 -233h-89q0 64 -5 136l-3 38q-2 7 -2 27q0 18 -6 75q-6 61 -7 141v207q2 58 2 336v33q0 130 -5 223v56l-2 28v31q-8 101 -8 203zM169 1705q0 -168 7 -297 q11 -179 11 -379v-33q-3 -41 -3 -84v-200l16 2q3 0 2.5 1.5t4.5 1.5l44 7q71 28 95 44q18 12 60 29q96 39 144 104q30 46 62 161l8 49q0 10 2 13v8l3 10l7 38q18 99 18 160q0 137 -56 229q-28 44 -75.5 73.5t-96.5 54.5h3q-13 3 -20.5 7t-26.5 12q-78 36 -117 43 q-35 0 -48 7q-23 11 -39 11q-5 -30 -5 -69v-3z" />
<glyph unicode="Q" horiz-adv-x="1630" d="M31 755v36q11 311 251 671q5 5 7.5 11.5t7.5 11.5l23 31q101 129 167 182t148 71l36 10h-3q83 33 241 33q79 0 145 -33q144 -73 204.5 -137.5t102.5 -137.5t71 -154q58 -156 58 -331l-3 -13v-38q-28 -344 -125 -502q-91 -143 -197 -236l123 -146q13 -20 36 -33 q18 -20 35.5 -40.5t35.5 -59.5l-69 -71q-40 89 -84 125l-23 21l-128 156q-204 -138 -384 -138h-25q-73 0 -157.5 23t-145.5 53l-46 28l-16 11h3q-46 28 -93.5 62.5t-75.5 78.5q-120 165 -120 455zM115 755q0 -89 21 -179q31 -138 84 -228q48 -59 161 -125l21 -13 q103 -61 269 -79h36q151 0 340 122q-102 128 -235 282q-77 77 -264 251l-131 123q-38 36 -79 74t-77 74l-74 64q-61 -138 -72 -333v-33zM225 1208q15 -23 36 -36l87 -74q54 -54 126 -112l51 -59h-3l26 -26q0 -5 10 -8q191 -168 315 -302h3q70 -78 161 -197l59 -77h-3l18 -17 q41 36 79.5 84.5t74.5 94.5l25 33q78 144 105 474q5 22 5 67.5t-12.5 122t-37.5 149.5q-54 154 -152 252q-44 48 -169 110q-72 36 -103 36h-44q-12 0 -27 -3l-59 -5q-21 0 -87 -23l-56 -10q-83 -30 -113 -51v2q-62 -58 -141 -155.5t-103.5 -142.5t-38.5 -71q-22 -43 -32 -56 z" />
<glyph unicode="R" horiz-adv-x="770" d="M54 1748v64q3 44 13 60.5t43 16.5l49 -5l2 -2h18q74 -10 146 -28t136 -70q118 -90 174 -223t56 -273v-48q0 -155 -82 -261t-187 -193l-2 2l-16 -15q-98 -76 -174 -95q46 -61 71 -108q70 -133 119 -196h-3q38 -42 118 -167q28 -38 55 -80.5t55 -77.5l-64 -54 q-50 64 -84 120l-31 46q-46 87 -93.5 137t-69 87t-42.5 78h3l-8 13l-15 21l-34 61q-30 46 -56 72l-3 -10v-605h-87v428q0 128 3 266v169l3 13v107l7 333q0 199 -10 273q-10 70 -11 96zM138 1713q0 -26 8 -73q15 -90 15 -229q0 -213 -4 -283q-4 -63 -4 -116q1 -6 1 -12v-109 v-89q0 -19 2 -47q99 8 223 110v-2q77 72 142 153q83 104 83 220v8v44q0 120 -46 235t-143 190q-54 36 -122.5 52.5t-149.5 31.5q-3 0 -1.5 -1t-3.5 1v-84z" />
<glyph unicode="S" horiz-adv-x="775" d="M10 422v3q0 3 3 8v56h87v-61l-3 -13q0 -3 3 -8q5 -99 84 -189q32 -56 90 -62q11 -3 26 -3q40 0 107 26q74 41 115 107.5t41 137.5q0 122 -100 341q-18 23 -18 34q-8 8 -7 15l-46 85q-13 15 -26 30.5t-26 30.5l-20 26h3l-18 20l-34 64q-146 260 -176 407q-5 18 -5 39v40v9 q0 102 62 171q77 83 231 106q27 4 61 4q72 0 137 -36q18 -13 42.5 -27t46.5 -36q49 -51 49 -119h-94q1 4 1 8q0 26 -28 52q-32 30 -59 42q-62 26 -99 26t-98 -16.5t-113 -68t-52 -115.5q0 -6 7 -58q43 -134 89.5 -235t64.5 -139l23 -44q15 -38 69 -92l26 -31q45 -61 69 -115 l15 -41v3q110 -205 110 -382q0 -230 -202 -325q-67 -28 -154 -28h-16q-84 0 -165 100q-89 119 -98 210q-5 10 -5 43z" />
<glyph unicode="T" horiz-adv-x="693" d="M-44 1866q76 10 95 10h45q27 0 47 -5h16q47 -5 110 -5h23q51 3 103.5 5.5t103.5 7.5l54 3q30 5 87 5l46 2l28 3h28l3 -87l-28 -3h-21q-60 0 -151 -7l-56 -6l-108 -10q-3 -13 -2.5 -25.5t0.5 -22.5v-36q-3 -20 -3 -35v-160l3 -18l-10 -440q0 -162 -11 -300 q-10 -148 -10 -297v-35l3 -18v-75q5 -47 5 -116v-163h-87v140l-8 200v67q0 75 5 198v48l3 51q10 148 10 300l10 448l-2 10v160q0 22 2 37v80h-59t-48 2h-13q-27 8 -80 8t-130 -10z" />
<glyph unicode="U" horiz-adv-x="1105" d="M77 1178v30q0 147 5 259v51l2 28v21q6 138 6 294h84v-139q0 -78 -2 -140v-26l-3 -33v-56l-3 -67v-222q0 -162 13 -235t15.5 -124t5.5 -95v-46q0 -236 71 -409q49 -98 103 -121q0 -5 19.5 -7.5t38 -2.5t59.5 15.5t80 28.5q132 84 222 404q75 267 75 697v101q0 50 -5 120 q-8 112 -8 383h85q0 -276 6 -362.5t6 -142.5v-99q0 -455 -74 -730q-65 -240 -158 -362q-36 -48 -91.5 -73t-105 -46t-98.5 -21t-79 13h-6q-103 37 -156 166q-44 119 -59 297q-5 33 -5 110l-2 16v25q-3 49 -5.5 108t-14.5 118q-21 97 -21 274z" />
<glyph unicode="V" horiz-adv-x="1090" d="M13 1882l92 -3l5 -59q0 -10 6.5 -33t11.5 -41l51 -156q10 -30 10 -90l11 -64q3 -20 10.5 -43t14.5 -46l26 -100q10 -51 17.5 -100t15.5 -100l8 -51q27 -197 74 -410l15 -74l18 -77q32 -148 62 -238l36 103l35 89q38 99 100 302v-2l44 146q72 270 130 401q15 38 32 87 t35 99q26 73 61 183l26 128q5 20 11.5 43.5t11.5 45t10 42.5l77 -3v-24q0 -19 -2 -32l-3 -8v-18l-44 -202q-13 -38 -28 -88t-33 -100t-34.5 -98.5t-43.5 -112.5q-50 -119 -82 -235t-33.5 -126.5t-6.5 -15.5l-10 -25q-5 -28 -15.5 -56.5t-24.5 -79.5q-33 -121 -90 -284 l-59 -138q-33 -89 -64 -162l-18 -36l-64 6l-8 41v-3q-28 92 -53.5 194.5t-51.5 204.5l-26 105q-26 111 -74 415l-13 72q-10 30 -10 74l-15 100q-5 23 -10.5 48.5t-10.5 48.5l-25 95v-3q-8 26 -13 74l-41 149q-11 29 -15.5 51.5t-15 56t-10.5 71.5z" />
<glyph unicode="W" horiz-adv-x="1917" d="M15 1838h87q0 -59 26 -105l18 -46q10 -31 14 -68t12 -101q26 -226 51 -343t39 -209.5t28 -185.5q36 -227 61 -347q10 -31 11.5 -52.5t3.5 -24.5l5 -21q5 -18 9 -39l24 -76v-2l6 -16l33 121l79 215l59 176l23 77q0 14 10 28v-2l11 30l7 29q52 157 85 286q56 221 105 330 q89 178 89 287v54l80 3q18 -61 18 -115v-69q0 -14 2 -29v-38l3 -8v-10q5 -74 15 -146l46 -338q50 -264 90 -410l15 -61l21 -87q8 -41 15.5 -79.5t19.5 -79.5l8 -36q5 -18 7.5 -25.5t5.5 -25.5q5 13 11.5 23t14.5 23l17 44q62 118 85 197l28 89q3 10 8 23t19 60 q50 169 88 258l23 54q48 105 54 140q46 152 69 198q55 110 64.5 144.5t11 34.5t3 3.5t1.5 10t5 16.5l15 41q3 3 5.5 10.5t4.5 12.5l13 36l5 18l13 31q0 8 5 15v8q0 8 4 17q14 29 14 73l95 -8l-8 -31l-13 -59l-15 -51l-15 -38l-11 -36l-18 -51l-10 -26q-29 -90 -82 -197 q-50 -118 -56 -154l-8 -23q-5 -15 -5 -18l-59 -163l-18 -41q-79 -193 -140 -418q-46 -150 -95 -225l-10 -20l-13 -16q0 -5 -7 -12q-14 -14 -14 -34l-15 -74q-5 -26 -10 -53t-16 -47q-5 -20 -18 -44l-12 -25l-36 51q-32 43 -46 123l-5 41q-5 31 -13 64q-41 170 -51 230 l-18 85l-11 43l-5 23q-13 44 -24.5 97.5t-23.5 108.5q-44 189 -87 511l-5 33q-5 20 -6.5 43.5t-4.5 46.5l-20 -43q-42 -76 -73.5 -189t-45.5 -160.5t-27 -96.5t-27 -95t-24 -84l-103 -320l-82 -225l-23 -80q-5 -33 -25.5 -93t-48.5 -91l-56 -36l-16 67q-5 52 -33 118 q-41 97 -51 184q-3 15 -5.5 31.5t-12.5 67.5q-15 79 -49 310l-7 44l-8 38q-13 74 -24.5 147t-27.5 155q-38 189 -61 407q-5 20 -7.5 50t-9 48t-11.5 28t-13 27q-23 51 -23 134z" />
<glyph unicode="X" horiz-adv-x="1008" d="M-36 23l77 166l46 93v-3l13 36q10 20 19 39.5t14 19.5q112 255 172 358q15 36 30.5 73t25.5 60t16.5 40t9.5 24l64 156q-41 99 -144 290v10q-49 80 -84 156q-5 20 -14 37t-17 35h3l-13 18q-35 70 -46 199h84q4 -61 46 -156l49 -102l20 -51q8 -20 19.5 -44.5t19.5 -45.5 q77 -128 125 -228l41 72l33 64q64 108 103 205l18 51v2q0 3 1 3t13 30q47 122 150 223l64 -61q-64 -64 -128 -202q-3 -3 -3 -7t-3 -6l-28 -67l-53 -102l-49 -100q-8 -8 -8 -15q-3 -3 1 -1.5t-14 -16.5h3l-10 -21q-13 -20 -29.5 -57t-34.5 -73l-18 -36l20 -41l3 -10 q0 -8 8 -16l74 -161l84 -220q16 -37 46 -143l11 -34l30 -117q46 -131 172 -341l-92 -5q-109 164 -162 317l-51 180q-8 28 -16.5 58.5t-29.5 71.5l-64 161l-13 29l-5 15l-5 18v-3q-13 26 -23 50.5t-20 47.5l-16 30l-7 -20q-24 -45 -24 -56t-2 -13l-13 -28q-36 -94 -117 -260 q-97 -200 -134.5 -287.5t-63.5 -123.5l-25 -59l-57 -105h-92z" />
<glyph unicode="Y" horiz-adv-x="1018" d="M-20 1825l25 21q25 20 33 20v3q21 -13 57 -57h-3l23 -25q3 -5 18 -21q38 -53 115 -125l72 -87h-3l72 -77l59 -59q56 -59 105 -133l36 -49l5 -10q0 -3 10 -13l33 -51l41 85q42 94 72 202l36 115q28 87 82 161.5t120 156.5l72 -57q-67 -79 -115.5 -145.5t-71.5 -143.5 l-38 -108v3q-38 -155 -72 -223q-60 -121 -95 -177q-43 -71 -43 -76l-52 -97q-65 -111 -128 -249l-99 -222q-44 -92 -103 -202.5t-118 -222.5l-97 5q79 120 177 343l153 340q23 44 49 86t51 86l16 25q5 8 11.5 22t11.5 22l20 36l8 20q41 64 66 128q-5 5 -5 8v-3q-6 6 -15 28 l-46 59q-84 133 -141 190l-136 141l-46 56l-36 36q-3 3 -6.5 10.5t-19.5 22.5q-26 23 -79 90l-35 48q-10 15 -23 32t-23 32z" />
<glyph unicode="Z" horiz-adv-x="1059" d="M-82 -49l56 123l44 74l69 105q0 4 2.5 6t6.5 10t15.5 25.5t24.5 45.5l12 16h-2q177 277 397 673l30 62h-81l-24 2h-92l-15 -2q-63 0 -92 15l5 77q53 -8 87 -8h18q10 0 23 3h49l7 2q13 0 21 -2l112 -11h16l10 3q45 73 118 241l5 10q5 5 7.5 18t10.5 20l13 44q37 95 63 128 t44 53l15 16q9 15 11 20t5 11h-51l-13 -3h-62q-49 0 -76 -8h2q-15 -5 -33 -5l-51 -7q-26 -5 -44 -7t-39.5 -1.5t-75.5 0.5t-79.5 4t-43.5 4t-23 2l-33 3q-43 5 -81.5 5t-64.5 5l-103 2l-7 93l128 -6q26 -5 38 -5q48 0 95 -5l41 -2q15 -3 25 -3h21q69 -8 107 -8h52q12 0 25 3 q33 0 72 8l25 5q68 13 105 13h59q21 0 41 2h80q10 0 15 -5l-3 5h75l-3 -59q-20 -56 -92 -133h3l-39 -56l-43 -95q-5 -5 -6 -10l-12 -31q-5 -5 -5 -10l-16 -44q-23 -80 -100 -210h3q69 16 184 16l80 -3l-18 -87l-62 5q-70 0 -119 -9q-84 -14 -116 -14l-51 -87 q-139 -266 -308 -529q-12 -19 -21 -36q-15 -27 -40 -67l-26 -38q-20 -36 -41 -64l-18 -23l-10 -16l-18 -38l-13 -16h3l-20 -30q57 15 154.5 15t129.5 -5h56q34 -5 72 -5t82 5h82l40 2l8 -2h54l38 8q13 2 26 7l113 39l2 -92l-64 -18l-18 -6h3q-26 -20 -64 -20q-8 -3 -20 -3 h-42l-12 3h-70.5t-63.5 -5h-10q-38 -5 -76 -5h-51q-14 0 -21 2l-136 11q-146 0 -284 -54q-20 -13 -58.5 -32t-59.5 -30z" />
<glyph unicode="[" horiz-adv-x="514" d="M67 22v56q0 19 2 32v10l3 8v130q0 59 2 121v115l3 38v205l-3 8v36q0 142 13 402l10 194q5 82 6.5 169t4.5 174v18l10 223l30 3q22 5 42 5h36q7 0 40 -5h8q18 -3 45 -3h55v-90h-56l-116 8h-2v-35q0 -21 -3 -29v-18l-2 -23v-38q-3 -90 -4.5 -179.5t-6.5 -179.5l-7 -194 q-13 -260 -13 -402v-44l2 -13v-112l-2 -31v-202q-3 -61 -3 -120v-141l-5 -44v-25q0 -56 10 -80q19 -7 33 -7q48 0 67 4q27 6 108 6l-5 -85q-55 0 -77 -5h-13q-25 -5 -61 -5q-66 0 -87 11.5t-31 27t-17 23t-6 10.5q-3 3 -6.5 19t-3.5 54z" />
<glyph unicode="\" horiz-adv-x="542" d="M10 1992h77l61 -256q5 -51 12 -78q15 -59 27 -160l8 -34q16 -89 30 -151l13 -87l54 -269q13 -111 77 -322l20 -95q8 -18 11.5 -42t9.5 -50l46 -251q5 -10 6 -33q2 -49 6 -59l6 -41q3 -8 4 -22t6 -27q8 -49 18 -84l18 -95h-85q-29 88 -38 164l-16 90q-5 10 -5 25l-10 67 l-8 41q0 -29 -3.5 11t-3.5 48l-3 12l-23 146q-3 0 -2 11l-6 17q-3 5 -4 14.5t-6 24.5l-25 115q-28 103 -80 328q-13 118 -39.5 233t-40.5 189t-22 115l-39 228q-8 20 -12 74l-11 36l-5 31q-15 15 -23 136z" />
<glyph unicode="]" horiz-adv-x="476" d="M46 1823v87q144 0 190 -8q22 -8 40 -38l6 -41v-49l-3 -10v-8q-5 -73 -5 -171t-8 -146v-62q-5 -55 -5 -133l-2 -15v-82q-6 -98 -6 -197v-28q0 -55 6 -105v-26l2 -15v-13q8 -70 8 -202v-169l-3 -16v-46q0 -145 10.5 -226t15.5 -117t5 -61l-5 -67q-15 -3 -31 -2 q-13 -3 -29.5 -3t-36.5 -2l-134 -13v61l21 28l130 13q0 17 -14 89q-19 98 -19 300v46l3 16v171q0 100 -8 197v13l-2 15v26q-6 40 -6 108v28q0 99 6 197v49l2 15v33q0 46 5 136v43l3 16v13q5 55 5 141.5t5 149.5v39l3 36q-45 5 -83 5h-66z" />
<glyph unicode="^" horiz-adv-x="599" d="M92 1718l66 33q30 15 48 30q30 22 83 55l11 2q3 0 5 3l199 -133l-20 -90l-115 84l-44 29l-18 15q-13 -8 -30.5 -19.5t-30.5 -16.5v3q-64 -55 -151 -98z" />
<glyph unicode="_" horiz-adv-x="852" d="M18 -41v90h386l31 2h121l30 -2h220v-90h-204l-39 3h-130l-29 -3h-386z" />
<glyph unicode="a" d="M36 3q17 165 54 273v-2q29 103 41 192q23 167 94 410l87 302q13 36 22 73t19 70l28 84l13 47q16 41 34 76q8 26 11.5 47.5t8.5 42.5l8 31q8 26 7 51l8 20q29 105 36 190l69 5l38 -167l8 -48l44 -202l28 -159l5 -31q3 -18 4 -34.5t6 -31.5l8 -64l10 -59q53 -314 143 -674 q0 -12 13 -46q5 -13 7.5 -24t5.5 -24l10 -31v3l31 -105l20 -90q17 -68 52 -120h-100q-26 44 -32.5 73t-10.5 57.5t-14 58.5l-28 87q-10 31 -19 65.5t-22 78.5l-5 30q-81 331 -110 499q-49 0 -92 -5h-18l-20 -2h-87l-31 -3l-49 3q-13 0 -23 5l-15 -39l-13 -46l-5 -20 q-66 -211 -103 -412l-17 -82l-3 -16q-3 -5 -3 -10l-12 -71l-8 -31q-25 -96 -41 -228zM361 1034q3 -2 23 -2h100l23 2q36 5 65.5 6.5t77.5 6.5l-10 56q-5 31 -9 59t-9 52.5t-7.5 42.5t-5.5 36l-28 161l-23 133q-10 38 -18 74q-5 -13 -5 -19t-3 -19v-15q-8 -81 -20 -105 l-36 -103q-5 -13 -10 -28t-10 -28l-18 -56q-46 -122 -77 -254z" />
<glyph unicode="b" horiz-adv-x="780" d="M97 49v20l8 77v36q5 33 6.5 81.5t1.5 100.5v337q-3 31 -3 76v141q0 14 -2 32v23q-6 46 -6 112v190l3 15q0 80 5 195v89l3 95v83q0 40 -3 84l3 38q50 8 84 8h92q61 0 89.5 -11.5t44 -20.5t38.5 -22l38 -21q53 -28 141 -128q82 -114 82 -304v-36q-8 -145 -202 -284l-11 -5 q20 -13 103 -90q55 -66 69 -141q8 -24 8 -78.5t-7 -92.5q-15 -90 -28 -126q-22 -55 -27 -71q-17 -52 -30.5 -74t-17 -26.5t-18.5 -27.5l-5 -3q-13 -20 -30 -48.5t-37 -46.5l-56 -53q8 8 -8 -13q-49 -46 -104 -88.5t-126 -62.5l-39 -11q-12 -2 -22 -2q-28 0 -33 17.5t-5 29.5 q0 4 1 7zM174 110q2 0 5 -5h-2q-3 3 -3 4q-1 1 0 1zM179 105q5 -5 8 -5q83 36 159 110h-3q13 13 36 34.5t33 31.5l18 16v-3q25 21 54 67l23 38l41 113q0 13 5 18l10 28q1 1 2 3t1 5q36 94 36 153q0 101 -26 141.5t-53 72.5q-51 61 -159 83h-23q-13 0 -18 3h-6q-3 0 -2 2h-13 l-10 -2h-18q-17 -5 -41 -5q-8 -5 -18 -5h-23v-11q5 -33 5 -93v-104l5 -182v-125l-2 -13v-114q0 -52 -3 -103l-8 -118l-2 -13v-20zM189 1285l3 -189q10 0 15 2q8 5 59 5q10 3 23 3h32t22 -1.5t23 -1.5t21 -2q20 5 53.5 16.5t48.5 16.5q51 33 96 87t50 118v36q0 165 -67 256 q-55 65 -105 92l-59 31q-5 3 -15 7.5t-15 10.5q-8 0 -16 7q-44 13 -69 13h-82q-3 0 -1.5 1.5t-3.5 1.5v-128q0 -153 -7 -198v-33q-6 -72 -6 -151z" />
<glyph unicode="c" horiz-adv-x="1615" d="M67 798q0 97 10 157q38 231 74 330q68 210 151 284q115 113 263.5 195t315.5 89h56l10 3h59q137 0 210 -20h-3q95 -20 177 -91t131 -163l-64 -61q-49 90 -118 147t-129 72q-99 26 -204 26l-15 -2h-105q-241 -18 -525 -259q-44 -49 -73 -118t-52 -135q-23 -54 -35 -114 t-24 -117l-8 -56l-3 -15q-3 -5 -2 -5v-3l-3 -10v-13q-7 -39 -7 -80v-54q0 -14 2 -32v-26q3 -36 5.5 -69t17.5 -79.5t53.5 -110.5t77.5 -110h-3q111 -111 195 -149q198 -89 340 -89h53q162 0 277 41q87 46 159 105v-2q77 77 77 123l92 -3q-4 -91 -87 -164q-53 -69 -202 -138 q-52 -26 -141.5 -36t-116 -11.5t-59.5 -1.5h-52q-94 0 -141 13h3q-173 46 -223 67q-132 64 -235 184h2q-49 54 -94.5 128t-61 124t-18 92.5t-5.5 82.5v24q-2 9 -2 50z" />
<glyph unicode="d" horiz-adv-x="1159" d="M97 1889l54 3q55 0 74 -8h23l154 -25q77 -28 164 -64t166 -99q159 -125 259 -319q31 -59 45 -120t26 -125l6 -21l5 -31q10 -62 10 -133q0 -47 -5 -97q-23 -136 -80 -246q-65 -141 -169 -256l-46 -43v2l-30 -31q-53 -53 -153.5 -112t-136.5 -74l-130 -59l-13 -5h3 q-22 -7 -100 -13h-13l-5 -3h-46l-18 18q-8 173 -8 456v210l3 33v243q0 136 -12 302q-12 159 -12 204l1 95v97q0 47 -2.5 83.5t-2.5 45.5q-5 10 -6.5 33t-4.5 59zM200 1797q5 -59 5 -118v-199q0 -41 2 -80l3 -82q8 -123 8 -348v-545q0 -216 10 -325q28 0 61 13h3 q65 18 130 53q121 55 190 113v-3l59 54q13 13 24.5 23.5t16.5 15.5l23 20v-2l7 10l34 31q59 59 140 215q38 86 72 220q5 30 5 85t-11 117q-13 66 -73 274q-110 198 -228 297v-3q-47 37 -162 80t-150 56q-69 18 -103.5 20.5t-37.5 5.5h-18q-3 0 -3 2h-7z" />
<glyph unicode="e" horiz-adv-x="842" d="M46 3l3 58q5 13 5 19v120q0 25 2 53v13q13 43 13 330v152q0 38 3 69v89l2 21v30l-2 16v97l-11 95q-10 56 -10 128l3 36v117q0 21 2 44l8 90l8 76v94l2 91v10l3 18v15h84l8 -2h211t142 -3l144 -8q10 -3 33 -2h15l64 2v-94q-8 -3 -18 -3h-43l-97 8h-11q-59 0 -98 5 q-64 8 -201 8h-141l-13 2q-2 -24 -2 -85v-82q0 -20 -6 -50l-7 -93v-93l-3 -76v-93q0 -32 13 -65l28 5q30 5 87 5l138 10h84l87 -8h106l-3 -87h-115q-13 0 -25.5 -1t-22.5 4h2q-18 5 -36 5h-77l-138 -10q-34 0 -65.5 -6.5t-36.5 -6.5h-10v-105l2 -8v-105l-2 -38 q-3 -31 -3 -68v-150q0 -191 -5 -270q-8 -109 -8 -178v-48h289t159 5h13l8 3h89l13 2h39v-87h-38q-12 0 -57 -5h-31q-98 -10 -218 -10h-64l-12 2h-185l-48 -7h-49z" />
<glyph unicode="f" horiz-adv-x="832" d="M95 28l5 90q0 8 10 13h-8q3 10 3 23v105l3 12v34l-3 15v166l3 13v35q0 22 4 54q8 76 8 213v59l-2 16v28q-5 55 -5 148v97l2 13l8 174v13l2 72q0 74 6 146l7 87q5 25 5 77v30q-2 24 -2 42q0 58 20 58h25l96 5q19 0 51 5h59l10 3h42l77 5h150l51 -5h56v-85q-8 -3 -18 -2 q-8 -3 -23 -3h-34q-14 0 -23 3t-20.5 2.5t-16.5 -0.5h-121l-104 -7h-80l-105 -8v-51q0 -39 -5 -72l-8 -84q-5 -36 -6.5 -77t-3.5 -85v-189q66 0 87 -5.5t27 -5t9 0.5h179l187 -13v-90l-197 16h-208q-3 0 -2 2h-18l-26 3q-22 5 -46 5v-46l-2 -15v-16q0 -85 4 -128 q4 -38 4 -68v-7q-1 -32 -1 -69q0 -102 -7 -167q-6 -60 -6 -79l1 -35l-3 -20v-167l3 -7v-39l-3 -7v-105l-5 -67q-5 -13 -5 -59h-87z" />
<glyph unicode="g" horiz-adv-x="1507" d="M36 927q0 211 72 373q23 51 47 101.5t60 88.5h-3l39 54q143 209 348 306q56 26 123 26q156 0 271 -38q39 -7 59 -21q24 -15 28 -15q5 -5 20.5 -10t25.5 -10l144 -98q14 -8 23 -12l20 -18q50 -42 62 -128l-90 -3q0 28 -18 47.5t-38 37.5v-3l-16 15v-2q-30 20 -66 38 l-15 18q-5 5 -14.5 9t-21.5 12l-28 15q-18 0 -26 10l-13 8l-56 20q-159 39 -227 39t-106 -18t-74 -38l-21 -11q-61 -36 -104.5 -85.5t-87.5 -103.5l-28 -31h3l-39 -46q-57 -79 -97 -197q-69 -157 -69 -333q0 -72 11 -154q18 -121 61 -263q26 -109 99 -190l39 -43 q41 -41 68 -53q40 -17 97.5 -58t103.5 -48l38 -7q0 -3 3 -3h7q59 -10 79 -10h3l5 2q49 3 80 16h12q49 13 67 21.5t37 12.5t28.5 6.5t9 4t21.5 8.5q93 27 129 57q52 55 118 205l5 17l31 72q5 20 15 45l21 52v17q0 12 5 24v16q3 20 4 42t10 47q14 38 14 98v38h-3q0 -5 -66 -5 h-174l-10 2l-100 11q-32 5 -46 5h-59l-16 -3h-79v90h129t63 -3l59 -5l72 -8h146t64 3q27 8 74 8l18 -34q15 -26 15 -64v-35q0 -58 -18 -134l-8 -53q-5 -56 -12 -75v3l-11 -33q-11 -42 -23 -87v2l-12 -36l-16 -41q-28 -59 -60 -121.5t-91 -121.5q-67 -58 -187 -87l-15 -5h2 l-25 -10q-35 -15 -100 -33l-28 -8q-8 -5 -24.5 -6.5t-31 -4t-24.5 -2.5h-15q-45 0 -87 10h-8q-3 0 -5 3l-41 8q-49 7 -120 53l-105 54q-56 33 -100 87l-28 33h3q-46 44 -82 108t-53 121q-41 146 -52 220q-18 131 -18 225z" />
<glyph unicode="h" horiz-adv-x="844" d="M90 1892l92 -3v-161l-3 -8l10 -115q6 -56 6 -95v-61l-8 -143q0 -74 5 -126v-23h164l10 3h34q17 0 33 2l38 5h23q22 5 56 5h31q18 6 41 6v5q0 177 -8 212v87l-5 184v82q-5 32 -5 74v54h87v-54q0 -33 3 -53l2 -21v-33q0 -85 5 -233v-84l3 -10l5 -164v-98q0 -76 -4 -123 q-6 -69 -6 -164t5 -150v-26q5 -33 5 -84l-2 -11v-132l7 -142v-268h-87v302q0 15 -2 36v10q-5 25 -5 112v85l2 8q0 51 -4 85q-6 52 -6 155t5 185v20q6 21 5.5 36t-0.5 33q-9 0 -36 -5h-28l-115 -15h-73q-37 0 -70 -3h-105v-8l2 -10v-604l3 -10v-23q0 -18 -3 -31v-92 q-2 -9 -2 -54v-18q2 -7 2 -48v-18q-2 -10 -2 -118h-87v192l-3 10l3 38v123q2 9 2 39l-2 10v655l-8 203q0 65 4 97.5t4 48.5v33q0 60 -3 91.5t-4 43t-4 25.5q-5 23 -5 83v8q0 8 3 12z" />
<glyph unicode="i" horiz-adv-x="268" d="M56 576v54q0 25 6 86q22 204 22 299v135l8 245v74l-2 16l7 376h87q0 -103 -7 -159v-217l2 -16v-74q0 -94 -4 -149q-4 -49 -4 -86q1 -5 1 -9v-118t-13 -244.5t-13 -245.5t5 -164v-87l3 -97v-64q0 -36 -3 -95l-90 2q6 56 6 157z" />
<glyph unicode="j" horiz-adv-x="417" d="M-189 -361l2 85h51q17 0 29.5 -4.5t20 -4t12.5 0.5l74 23q69 45 102 72h-2q53 63 66 140l11 52q3 10 2 30q-3 3 -2 13v38q7 28 7 208v74l3 28v73q0 157 5 221q6 58 6 110v10q-1 57 -1 133.5t-5 169.5v51l-3 144v240q0 104 -7 128v90q-3 0 -3 10v28q0 31 10 74l90 -2 q-13 -49 -13 -72v-41l3 -13v-79q7 -45 7 -117v-256q0 -67 3 -134v-13q5 -90 5 -196v-151l-10 -408l-3 -28v-74q0 -122 -5 -202v-72l-10 -46q-3 -10 -5.5 -43.5t-24 -83.5t-56.5 -83q-81 -78 -134 -97q-58 -33 -115 -36l-67 7z" />
<glyph unicode="k" horiz-adv-x="936" d="M54 -3q28 99 28 144v59l-3 7v26q5 38 5 95v20q-7 39 -7 93q0 84 4 107t3.5 38.5t-0.5 33.5v25l-2 15v75q0 65 5 112v26q5 60 5 133v177q0 110 -5 187v89l8 301v114h82l-8 -322v-135q0 -21 3 -55q3 -28 3 -60q-1 -5 -1 -11v-78l62 54l110 126q38 38 51 59l48 53l144 149 q50 43 123 118l89 97l64 -64l-64 -64h3l-33 -36l-136 -133q-83 -78 -179 -182h2l-92 -107h3l-67 -80l-51 -38q-20 -10 -46 -44q25 -17 51 -48h-3l34 -29l35.5 -35.5t28.5 -33.5l33 -56h-3l44 -59q28 -36 57.5 -88.5t41 -71.5t15.5 -24t4 -10q18 -28 27 -52q15 -39 19 -53v2 l87 -207l28 -46q10 -18 24 -41t20.5 -37t10.5 -24.5t15 -27.5q36 -56 56 -92.5t38 -69.5l-105 -5q-5 23 -25.5 61.5t-28.5 45.5l-41 64l-72 131l-138 310q-61 132 -100 179l-30 43h2q-13 8 -13 23q-3 3 -6.5 10.5t-5.5 10.5l-41 49l-52 48l-38 41v-69q0 -26 -2 -54l-3 -28 v-41q-5 -47 -5 -102v-54l2 -8v-89l-7 -110q0 -56 7 -110v-36q0 -63 -5 -98v-76l3 -13v-26q0 -18 -2.5 -39.5t-5 -44.5t-8.5 -39z" />
<glyph unicode="l" horiz-adv-x="814" d="M56 870v351l5 161l8 164q10 82 10 151.5t-20 150.5l89 3q18 -75 18 -155t-10 -152v-23l-2 -16v-15q-3 -15 -3 -26v-23q-3 -27 -10 -194v-26q-3 -31 -3 -59v-276l3 -16q0 -167 9 -296q16 -229 16 -331l-2 -15v-110q39 7 89 7h178q88 0 98.5 4.5t26 4t23.5 -0.5h30l11 3 l12 -3h80l-5 -87l-87 3q-8 -3 -22 -3h-19l-21 -2q-8 -3 -20.5 -3t-24 -1.5t-88.5 -1.5h-205q-16 0 -43.5 -6t-61.5 -6l-36 2q-3 18 -2.5 47.5t0.5 55.5v105l2 7q0 103 -9 228q-14 213 -14 399zM156 115v3q-2 -2 -2 -2.5t2 -0.5z" />
<glyph unicode="m" horiz-adv-x="1666" d="M56 1874l75 5q10 -15 22.5 -39.5t26.5 -49.5q26 -45 43 -81q28 -58 30 -71l23 -48l13 -23l11 -23q5 -10 7.5 -23t38.5 -85q90 -180 222 -558q33 -109 43.5 -153t21 -83.5t17.5 -70.5l5 -23q40 -198 77 -302q5 10 7.5 17.5t5.5 15.5l107 266l118 228q119 213 304 669 q85 212 129 429l82 -2q0 -496 7 -827q13 -550 13 -1042h-64l-25 26q0 520 -11 947l-2 23v69l-3 56q-5 82 -5 146v233q-53 -151 -199 -484l-13 -28q-28 -64 -141 -274l-26 -48q-20 -41 -39.5 -78.5t-34.5 -72.5q-13 -13 -23 -41.5t-21.5 -51.5t-11.5 -33l-44 -110 q-35 -102 -74 -171l-3 -18h-69l-2 28q-46 92 -75.5 207t-55.5 225l-18 72l-10 44q-26 115 -54 186q-42 128 -161 408l-67 161l-74 156l-2 3q7 -123 7 -258v-34v-341l-2 -28v-42q0 -27 -3 -65v-21l-2 -15v-13q-5 -112 -5 -242q0 -247 6 -308q5 -44 5 -78q0 -30 -4 -51v-71 h-84v54q5 37 5 53t-5 58q-8 67 -8 239.5t5 340.5v28l3 26q3 33 3 57v8q0 27 -1 42l3 28v341q0 328 -44 586z" />
<glyph unicode="n" horiz-adv-x="1131" d="M67 236q0 132 5 192q3 36 4 60t4 32q4 17 12 74l3 8q7 78 7 245v374q0 326 21 525l-3 41q-3 3 -1.5 8t1.5 10v43h90l51 -102l49 -95l15 -36v3q15 -20 21 -31l20 -36l128 -312q10 -20 18 -44.5t20 -52.5q16 -37 57 -125q84 -180 120 -276q55 -146 72 -183 q52 -142 105 -266q0 187 12 297q21 206 21 310v127q0 21 -3 44q0 94 -5 154v15q-5 85 -5 213v10q0 64 -7 141l-3 7q-5 31 -5 64v64q0 91 15 144l87 -3q-18 -64 -18 -134.5t8 -141.5v-39q8 -27 8 -102v-10q0 -143 7 -282l6 -100q3 -17 3 -39q-1 -4 -1 -8v-82q0 -70 -15 -252 q-21 -255 -21 -379v-179q0 -54 3 -93h-97l-57 174q-15 33 -30.5 73t-32.5 83q-32 76 -67.5 169t-64 160.5t-56.5 137.5l-53 138l-95 207l-10 28q-14 23 -32 73q-55 146 -99 232l-38 79l-46 72q-8 -110 -8 -220v-597q0 -83 -5 -235v-26l-10 -79q-11 -44 -13.5 -91.5 t-2.5 -160t26 -211.5l-90 -3q-25 107 -25 195z" />
<glyph unicode="o" horiz-adv-x="1656" d="M54 823.5q0 116.5 10 196.5q28 219 113 362q10 10 10 16l20 36q78 123 141 181l46 46v-2l51 46q79 60 120 82q127 67 203 74q8 0 23 3q25 5 77 5q75 0 164 -31l36 -13q46 -18 92 -37t105 -64q133 -102 187 -239q76 -255 76 -450q0 -402 -187 -656q-183 -229 -431 -310 q-86 -28 -159 -28q-104 0 -188 54l-23 13q-10 0 -13 7l-10 8l3 -3q-10 3 -18 10.5t-8 12.5q-32 25 -54 34l-18 12v-2l-20 13q-10 10 -28 18q-54 22 -108 76q-113 108 -162.5 260.5t-49.5 269zM138 824.5q0 -107.5 42.5 -242t139.5 -224.5q38 -36 73 -56t73 -41l110 -74 q96 -53 159 -56h5q137 0 296 92q138 80 234 205q72 107 123 276q48 161 48 305q0 91 -26.5 229.5t-48.5 213.5q-40 135 -158 207q-86 59 -262 107q-45 13 -64 13q-38 0 -60 -5q-13 -3 -24.5 -2.5t-32 -3.5t-70.5 -24.5t-86 -41.5q-81 -37 -135 -97l-36 -33l-31 -23v2 q-74 -65 -120 -158l-36 -52q-66 -108 -103 -337q-10 -72 -10 -179.5z" />
<glyph unicode="p" horiz-adv-x="860" d="M82 1570v138q0 82 23 140q26 18 55 18q52 0 78 -10h-2q5 -3 10 -3l25 -5q74 -13 120.5 -37t51.5 -24h8q59 -31 114 -69.5t99 -102.5q76 -113 76 -268q0 -85 -18 -177l-5 -26q-5 -20 -5 -33q-5 -15 -5 -20l-8 -54q-25 -103 -71.5 -174.5t-91 -102t-103.5 -53.5l-57 -26 q-5 -5 -14 -7q-4 -2 -23 -10.5t-32 -13.5t-33 -13l-62 -5l-30 -5v-174q0 -72 7 -133l6 -51q12 -106 12 -233h-89q0 64 -5 136l-3 38q-2 7 -2 27q0 18 -6 75q-7 61 -7 141v207q2 58 2 336v33q0 130 -5 223v56l-2 28v31q-8 101 -8 203zM169 1705q0 -168 7 -297 q11 -179 11 -379v-33q-3 -41 -3 -84v-200l16 2q3 0 2.5 1.5t4.5 1.5l44 7q71 28 95 44q18 12 60 29q96 39 144 104q30 46 62 161l8 49q0 10 2 13v8l3 10l7 38q18 99 18 160q0 137 -56 229q-28 44 -75.5 73.5t-96.5 54.5h3q-13 3 -20.5 7t-26.5 12q-78 36 -117 43 q-35 0 -48 7q-23 11 -39 11q-5 -30 -5 -69v-3z" />
<glyph unicode="q" horiz-adv-x="1630" d="M31 755v36q11 311 251 671q5 5 7.5 11.5t7.5 11.5l23 31q101 129 167 182t148 71l36 10h-3q83 33 241 33q79 0 145 -33q144 -73 204.5 -137.5t102.5 -137.5t71 -154q58 -156 58 -331l-3 -13v-38q-28 -344 -125 -502q-91 -143 -197 -236l123 -146q13 -20 36 -33 q18 -20 35.5 -40.5t35.5 -59.5l-69 -71q-40 89 -84 125l-23 21l-128 156q-204 -138 -384 -138h-25q-73 0 -157.5 23t-145.5 53l-46 28l-16 11h3q-46 28 -93.5 62.5t-75.5 78.5q-120 165 -120 455zM115 755q0 -89 21 -179q31 -138 84 -228q48 -59 161 -125l21 -13 q103 -61 269 -79h36q151 0 340 122q-102 128 -235 282q-77 77 -264 251l-131 123q-38 36 -79 74t-77 74l-74 64q-61 -138 -72 -333v-33zM225 1208q15 -23 36 -36l87 -74q54 -54 126 -112l51 -59h-3l26 -26q0 -5 10 -8q191 -168 315 -302h3q70 -78 161 -197l59 -77h-3l18 -17 q41 36 79.5 84.5t74.5 94.5l25 33q78 144 105 474q5 22 5 67.5t-12.5 122t-37.5 149.5q-54 154 -152 252q-44 48 -169 110q-72 36 -103 36h-44q-12 0 -27 -3l-59 -5q-21 0 -87 -23l-56 -10q-83 -30 -113 -51v2q-62 -58 -141 -155.5t-103.5 -142.5t-38.5 -71q-22 -43 -32 -56 z" />
<glyph unicode="r" horiz-adv-x="770" d="M54 1748v64q3 44 13 60.5t43 16.5l49 -5l2 -2h18q74 -10 146 -28t136 -70q118 -90 174 -223t56 -273v-48q0 -155 -82 -261t-187 -193l-2 2l-16 -15q-98 -76 -174 -95q46 -61 71 -108q70 -133 119 -196h-3q38 -42 118 -167q28 -38 55 -80.5t55 -77.5l-64 -54 q-50 64 -84 120l-31 46q-46 87 -93.5 137t-69 87t-42.5 78h3l-8 13l-15 21l-34 61q-30 46 -56 72l-3 -10v-605h-87v428q0 128 3 266v169l3 13v107l7 333q0 199 -10 273q-10 70 -11 96zM138 1713q0 -26 8 -73q15 -90 15 -229q0 -213 -4 -283q-4 -63 -4 -116q1 -6 1 -12v-109 v-89q0 -19 2 -47q99 8 223 110v-2q77 72 142 153q83 104 83 220v8v44q0 120 -46 235t-143 190q-54 36 -122.5 52.5t-149.5 31.5q-3 0 -1.5 -1t-3.5 1v-84z" />
<glyph unicode="s" horiz-adv-x="775" d="M10 422v3q0 3 3 8v56h87v-61l-3 -13q0 -3 3 -8q5 -99 84 -189q32 -56 90 -62q11 -3 26 -3q40 0 107 26q74 41 115 107.5t41 137.5q0 122 -100 341q-18 23 -18 34q-8 8 -7 15l-46 85q-13 15 -26 30.5t-26 30.5l-20 26h3l-18 20l-34 64q-146 260 -176 407q-5 18 -5 39v40v9 q0 102 62 171q77 83 231 106q27 4 61 4q72 0 137 -36q18 -13 42.5 -27t46.5 -36q49 -51 49 -119h-94q1 4 1 8q0 26 -28 52q-32 30 -59 42q-62 26 -99 26t-98 -16.5t-113 -68t-52 -115.5q0 -6 7 -58q43 -134 89.5 -235t64.5 -139l23 -44q15 -38 69 -92l26 -31q45 -61 69 -115 l15 -41v3q110 -205 110 -382q0 -230 -202 -325q-67 -28 -154 -28h-16q-84 0 -165 100q-89 119 -98 210q-5 10 -5 43z" />
<glyph unicode="t" horiz-adv-x="693" d="M-44 1866q76 10 95 10h45q27 0 47 -5h16q47 -5 110 -5h23q51 3 103.5 5.5t103.5 7.5l54 3q30 5 87 5l46 2l28 3h28l3 -87l-28 -3h-21q-60 0 -151 -7l-56 -6l-108 -10q-3 -13 -2.5 -25.5t0.5 -22.5v-36q-3 -20 -3 -35v-160l3 -18l-10 -440q0 -162 -11 -300 q-10 -148 -10 -297v-35l3 -18v-75q5 -47 5 -116v-163h-87v140l-8 200v67q0 75 5 198v48l3 51q10 148 10 300l10 448l-2 10v160q0 22 2 37v80h-59t-48 2h-13q-27 8 -80 8t-130 -10z" />
<glyph unicode="u" horiz-adv-x="1105" d="M77 1178v30q0 147 5 259v51l2 28v21q6 138 6 294h84v-139q0 -78 -2 -140v-26l-3 -33v-56l-3 -67v-222q0 -162 13 -235t15.5 -124t5.5 -95v-46q0 -236 71 -409q49 -98 103 -121q0 -5 19.5 -7.5t38 -2.5t59.5 15.5t80 28.5q132 84 222 404q75 267 75 697v101q0 50 -5 120 q-8 112 -8 383h85q0 -276 6 -362.5t6 -142.5v-99q0 -455 -74 -730q-65 -240 -158 -362q-36 -48 -91.5 -73t-105 -46t-98.5 -21t-79 13h-6q-103 37 -156 166q-44 119 -59 297q-5 33 -5 110l-2 16v25q-3 49 -5.5 108t-14.5 118q-21 97 -21 274z" />
<glyph unicode="v" horiz-adv-x="1090" d="M13 1882l92 -3l5 -59q0 -10 6.5 -33t11.5 -41l51 -156q10 -30 10 -90l11 -64q3 -20 10.5 -43t14.5 -46l26 -100q10 -51 17.5 -100t15.5 -100l8 -51q27 -197 74 -410l15 -74l18 -77q32 -148 62 -238l36 103l35 89q38 99 100 302v-2l44 146q72 270 130 401q15 38 32 87 t35 99q26 73 61 183l26 128q5 20 11.5 43.5t11.5 45t10 42.5l77 -3v-24q0 -19 -2 -32l-3 -8v-18l-44 -202q-13 -38 -28 -88t-33 -100t-34.5 -98.5t-43.5 -112.5q-50 -119 -82 -235t-33.5 -126.5t-6.5 -15.5l-10 -25q-5 -28 -15.5 -56.5t-24.5 -79.5q-33 -121 -90 -284 l-59 -138q-33 -89 -64 -162l-18 -36l-64 6l-8 41v-3q-28 92 -53.5 194.5t-51.5 204.5l-26 105q-26 111 -74 415l-13 72q-10 30 -10 74l-15 100q-5 23 -10.5 48.5t-10.5 48.5l-25 95v-3q-8 26 -13 74l-41 149q-11 29 -15.5 51.5t-15 56t-10.5 71.5z" />
<glyph unicode="w" horiz-adv-x="1917" d="M15 1838h87q0 -59 26 -105l18 -46q10 -31 14 -68t12 -101q26 -226 51 -343t39 -209.5t28 -185.5q36 -227 61 -347q10 -31 11.5 -52.5t3.5 -24.5l5 -21q5 -18 9 -39l24 -76v-2l6 -16l33 121l79 215l59 176l23 77q0 14 10 28v-2l11 30l7 29q52 157 85 286q56 221 105 330 q89 178 89 287v54l80 3q18 -61 18 -115v-69q0 -14 2 -29v-38l3 -8v-10q5 -74 15 -146l46 -338q50 -264 90 -410l15 -61l21 -87q8 -41 15.5 -79.5t19.5 -79.5l8 -36q5 -18 7.5 -25.5t5.5 -25.5q5 13 11.5 23t14.5 23l17 44q62 118 85 197l28 89q3 10 8 23t19 60 q50 169 88 258l23 54q48 105 54 140q46 152 69 198q55 110 64.5 144.5t11 34.5t3 3.5t1.5 10t5 16.5l15 41q3 3 5.5 10.5t4.5 12.5l13 36l5 18l13 31q0 8 5 15v8q0 8 4 17q14 29 14 73l95 -8l-8 -31l-13 -59l-15 -51l-15 -38l-11 -36l-18 -51l-10 -26q-29 -90 -82 -197 q-50 -118 -56 -154l-8 -23q-5 -15 -5 -18l-59 -163l-18 -41q-79 -193 -140 -418q-46 -150 -95 -225l-10 -20l-13 -16q0 -5 -7 -12q-14 -14 -14 -34l-15 -74q-5 -26 -10 -53t-16 -47q-5 -20 -18 -44l-12 -25l-36 51q-32 43 -46 123l-5 41q-5 31 -13 64q-41 170 -51 230 l-18 85l-11 43l-5 23q-13 44 -24.5 97.5t-23.5 108.5q-44 189 -87 511l-5 33q-5 20 -6.5 43.5t-4.5 46.5l-20 -43q-42 -76 -73.5 -189t-45.5 -160.5t-27 -96.5t-27 -95t-24 -84l-103 -320l-82 -225l-23 -80q-5 -33 -25.5 -93t-48.5 -91l-56 -36l-16 67q-5 52 -33 118 q-41 97 -51 184q-3 15 -5.5 31.5t-12.5 67.5q-15 79 -49 310l-7 44l-8 38q-13 74 -24.5 147t-27.5 155q-38 189 -61 407q-5 20 -7.5 50t-9 48t-11.5 28t-13 27q-23 51 -23 134z" />
<glyph unicode="x" horiz-adv-x="1008" d="M-36 23l77 166l46 93v-3l13 36q10 20 19 39.5t14 19.5q112 255 172 358q15 36 30.5 73t25.5 60t16.5 40t9.5 24l64 156q-41 99 -144 290v10q-49 80 -84 156q-5 20 -14 37t-17 35h3l-13 18q-35 70 -46 199h84q4 -61 46 -156l49 -102l20 -51q8 -20 19.5 -44.5t19.5 -45.5 q77 -128 125 -228l41 72l33 64q64 108 103 205l18 51v2q0 3 1 3t13 30q47 122 150 223l64 -61q-64 -64 -128 -202q-3 -3 -3 -7t-3 -6l-28 -67l-53 -102l-49 -100q-8 -8 -8 -15q-3 -3 1 -1.5t-14 -16.5h3l-10 -21q-13 -20 -29.5 -57t-34.5 -73l-18 -36l20 -41l3 -10 q0 -8 8 -16l74 -161l84 -220q16 -37 46 -143l11 -34l30 -117q46 -131 172 -341l-92 -5q-109 164 -162 317l-51 180q-8 28 -16.5 58.5t-29.5 71.5l-64 161l-13 29l-5 15l-5 18v-3q-13 26 -23 50.5t-20 47.5l-16 30l-7 -20q-24 -45 -24 -56t-2 -13l-13 -28q-36 -94 -117 -260 q-97 -200 -134.5 -287.5t-63.5 -123.5l-25 -59l-57 -105h-92z" />
<glyph unicode="y" horiz-adv-x="1018" d="M-20 1825l25 21q25 20 33 20v3q21 -13 57 -57h-3l23 -25q3 -5 18 -21q38 -53 115 -125l72 -87h-3l72 -77l59 -59q56 -59 105 -133l36 -49l5 -10q0 -3 10 -13l33 -51l41 85q42 94 72 202l36 115q28 87 82 161.5t120 156.5l72 -57q-67 -79 -115.5 -145.5t-71.5 -143.5 l-38 -108v3q-38 -155 -72 -223q-60 -121 -95 -177q-43 -71 -43 -76l-52 -97q-65 -111 -128 -249l-99 -222q-44 -92 -103 -202.5t-118 -222.5l-97 5q79 120 177 343l153 340q23 44 49 86t51 86l16 25q5 8 11.5 22t11.5 22l20 36l8 20q41 64 66 128q-5 5 -5 8v-3q-6 6 -15 28 l-46 59q-84 133 -141 190l-136 141l-46 56l-36 36q-3 3 -6.5 10.5t-19.5 22.5q-26 23 -79 90l-35 48q-10 15 -23 32t-23 32z" />
<glyph unicode="z" horiz-adv-x="1059" d="M-82 -49l56 123l44 74l69 105q0 4 2.5 6t6.5 10t15.5 25.5t24.5 45.5l12 16h-2q177 277 397 673l30 62h-81l-24 2h-92l-15 -2q-63 0 -92 15l5 77q53 -8 87 -8h18q10 0 23 3h49l7 2q13 0 21 -2l112 -11h16l10 3q45 73 118 241l5 10q5 5 7.5 18t10.5 20l13 44q37 95 63 128 t44 53l15 16q9 15 11 20t5 11h-51l-13 -3h-62q-49 0 -76 -8h2q-15 -5 -33 -5l-51 -7q-26 -5 -44 -7t-39.5 -1.5t-75.5 0.5t-79.5 4t-43.5 4t-23 2l-33 3q-43 5 -81.5 5t-64.5 5l-103 2l-7 93l128 -6q26 -5 38 -5q48 0 95 -5l41 -2q15 -3 25 -3h21q69 -8 107 -8h52q12 0 25 3 q33 0 72 8l25 5q68 13 105 13h59q21 0 41 2h80q10 0 15 -5l-3 5h75l-3 -59q-20 -56 -92 -133h3l-39 -56l-43 -95q-5 -5 -6 -10l-12 -31q-5 -5 -5 -10l-16 -44q-23 -80 -100 -210h3q69 16 184 16l80 -3l-18 -87l-62 5q-70 0 -119 -9q-84 -14 -116 -14l-51 -87 q-139 -266 -308 -529q-12 -19 -21 -36q-15 -27 -40 -67l-26 -38q-20 -36 -41 -64l-18 -23l-10 -16l-18 -38l-13 -16h3l-20 -30q57 15 154.5 15t129.5 -5h56q34 -5 72 -5t82 5h82l40 2l8 -2h54l38 8q13 2 26 7l113 39l2 -92l-64 -18l-18 -6h3q-26 -20 -64 -20q-8 -3 -20 -3 h-42l-12 3h-70.5t-63.5 -5h-10q-38 -5 -76 -5h-51q-14 0 -21 2l-136 11q-146 0 -284 -54q-20 -13 -58.5 -32t-59.5 -30z" />
<glyph unicode="{" horiz-adv-x="440" d="M41 860l5 69q10 5 19.5 11.5t17 11.5t12.5 10q10 8 18 6l12 28v16l-7 73v18l-3 18v118q-2 24 -2 161v167q0 157 10 225v3q0 3 3 19l7 48q5 32 21 55q7 18 28 31v-2q31 25 53 25h30q9 0 17 -5q13 -15 25.5 -29t12.5 -35v-15l-3 -23v-26l-64 28q-7 0 -15 13q-3 0 -2.5 -1.5 t-2.5 -1.5l-18 -23l-8 -58l-2 -11v-12q-8 -82 -8 -205v-325q3 -33 3 -82v-96l7 -68v-20q0 -11 -2 -16v3q-8 -38 -26 -54q5 -13 11.5 -27t11.5 -34q8 -31 8 -100v-16q2 -13 2 -102l-2 -16v-538q0 -22 -3 -35v-10l-2 -18v-49l-3 -18l-2 -5l28 26q59 -34 59 -60q0 -53 -44 -63 q-21 -13 -49 -13t-48 21q-31 20 -28 61v32q0 14 2 27v2q0 5 1.5 14.5t1.5 31t2 29.5v25l3 18v522l3 16v55q0 27 -1.5 43.5t-1.5 42t-3 41t-5 28t-5 15.5v-3q-13 8 -74 8zM205 -82q15 15 31 15v-35z" />
<glyph unicode="}" horiz-adv-x="512" d="M72 1875q0 38 36 63q59 41 97 20h-3q54 -13 67 -58q10 -20 15 -37t9 -33q7 -29 7 -102l-3 -18v-151l-3 -20v-249q0 -123 8 -246v-54q0 -10 3 -25q0 -3 1 -1.5t1 -0.5l3 -3l48 -8l-5 -61l-13 -13l-40 -31q-8 -32 -8 -59v-40q-5 -49 -5 -100v-174q0 -454 13 -510 q3 -8 2.5 -19.5t-0.5 -18.5q0 -28 -10 -44q-23 -41 -69 -41q-12 0 -37 13t-34 24.5t-9 25.5q0 38 18 47v-2l44 43v11l-5 371v274q0 53 5 100v74q0 23 10 51t21 41q-8 8 -8 13q-11 25 -10.5 44.5t0.5 44.5l-3 13v15q-8 86 -8 246v118l3 20v290l2 10q0 56 -6 85.5t-11 39.5 t-21 21l-8 -3l13 -18l-66 -48q-41 50 -41 70z" />
<glyph unicode="&#xa8;" horiz-adv-x="637" d="M102 1933l11 87l171 -8v-87q-26 3 -56 3h-54q-24 0 -54 5h-18zM343 2012h192l-3 -87q-23 3 -58 3h-57q-33 0 -46 -1.5t-25 1.5z" />
<glyph unicode="&#xa9;" horiz-adv-x="1254" d="M72 1188q0 213 117 381q48 70 136 141l41 33q45 45 177 82q46 13 101 13q121 0 226 -74q41 -28 79.5 -59t71.5 -82l47 -100l5 -15v2q46 -81 46 -203q0 -217 -72 -365q-75 -185 -307 -307q-50 -23 -126 -23h-69l-10 2q-129 13 -243 98q-84 62 -136 164q-28 56 -48 102 q-5 18 -9 39.5t-9 47.5l-6 26q-12 55 -12 97zM156 1216q0 -63 10 -105v3q5 -10 13 -59l16 -49q57 -139 86 -167q59 -57 136 -99l21 -5q43 -20 105 -31q0 -3 2 -3h69q47 1 85 16q82 44 155 111.5t114 149.5v2q64 169 64 292q0 61 -8 99.5t-20 67.5l-11 25l-5 21 q-10 10 -10 20l-5 21v-3q-13 44 -29 69q-29 45 -112 98l-31 18q-20 15 -65 31.5t-78 16.5q-66 0 -108 -15q-77 -28 -125 -64v2q-8 -8 -10 -7v2l-18 -18q-41 -36 -78 -66.5t-66 -68.5q-51 -86 -71 -170q-26 -104 -26 -135zM233 1241.5q0 84.5 36 148.5q97 151 194 197 q96 57 203 57h38q92 0 156 -80l-59 -59q-51 51 -106 51h-32q-82 0 -166 -53q-99 -53 -149 -159q-42 -71 -15 -172.5t50.5 -149t59.5 -62.5q84 -49 174 -49h21q29 0 68 14t49 25v-3l21 10l12 13l85 -5q-18 -46 -41 -71q-23 -24 -54 -34q-25 -16 -69 -25t-61.5 -8.5t-30.5 0.5 q-120 0 -215 51q-59 33 -87 87t-45 97q-37 95 -37 179.5zM968 978l7 -5l-5 7z" />
<glyph unicode="&#xab;" horiz-adv-x="785" d="M0 955q92 92 131 148l51 52l46 41h-3l16 23l69 69q29 22 48 59l62 -62l-26 -31q-17 -22 -46 -51v3l-66 -64h2l-41 -49q-32 -32 -74 -82l-26 -20l-5 -5l-18 -31q-5 -5 -5 -10l146 -164l36 -46h-3l21 -21l13 -10q3 -5 2 -13l3 5l18 -23q41 -53 110 -107l-67 -67l-161 179 l-13 16h3q-37 37 -54 59h3l-41 41l-54 61zM230 950l82 87l36 31v-3l90 92h-3l46 54l59 54h-2l41 59l76 -57q-35 -41 -43 -51q-11 -14 -18 -18v3l-18 -21l-13 -10l-148 -161l-62 -59v2l-5 -5l39 -43h-3l18 -18l61 -85q13 -13 27 -32t27 -32l146 -171l-67 -54l-117 138l-16 21 q-20 20 -74 92l-25 36h2l-23 25l-20 26q-28 35 -93 100z" />
<glyph unicode="&#xad;" horiz-adv-x="721" d="M33 1009h272q31 -6 52.5 -5.5t31.5 0.5h274v-90h-276l-351 2z" />
<glyph unicode="&#xae;" horiz-adv-x="1200" d="M92 1097q0 101 13 173t51.5 173t89.5 177q59 80 130 121l21 13l13 5h-3q20 8 42 16.5t43 17.5q41 17 76 17q104 0 157 -33.5t121 -86t114 -123.5l26 -36l2 -13l21 -43q5 -13 10 -23t17 -40q26 -60 26 -179q0 -244 -87 -414q-35 -62 -115 -148q-27 -37 -99 -82 q-88 -54 -169 -54h-29q-184 0 -276 97q-97 95 -146 229.5t-49 235.5zM177 1096.5q0 -88.5 47 -207t140 -208.5q55 -64 199 -64h21q58 0 114.5 34.5t87.5 64.5q79 80 116 153q76 147 76 342v5q0 161 -59 236l-10 17l-10 21h2q-10 10 -13 15l-10 31v-3q-28 51 -76 87 q-68 52 -94.5 64.5t-38 21.5t-24.5 9q-29 8 -54 8t-46 -5h3q-5 -3 -10 -3h-11l-112 -56q-46 -25 -98 -85q-86 -122 -130 -340q-10 -49 -10 -137.5zM440 707v524q0 43 5 116v28l3 18v12l3 190q15 5 29 11q36 17 62 17q35 0 124 -49q77 -70 102 -146q13 -62 13 -143.5 t-20.5 -132.5t-53.5 -100q-93 -98 -139 -125l69 -64v2q33 -29 52 -59q10 -10 19 -20t34 -26l-53 -66q-38 32 -85 84h3l-23 23l-41 36q-5 3 -8 5.5t-5 2.5l-5 5v-143h-85zM525 1009q103 66 151 170q20 45 20 83q0 90 -12 130q-25 76 -62 113v-2q-44 27 -87 33v-36 q0 -20 -3 -36v-18l-2 -10v-10q-5 -73 -5 -195v-222z" />
<glyph unicode="&#xbb;" horiz-adv-x="903" d="M123 543l110 148l26 28l33 44h-3l103 123l25 41q-8 8 -10 7l-87 82q-71 78 -138 167l-59 82l77 46l61 -95q49 -74 120 -133l31 -31l16 -18q37 -37 94 -79l23 -21q-48 -64 -61 -64q-15 -15 -29.5 -35.5t-22 -31t-18 -25.5t-45.5 -54l-34 -40l-92 -126l-41 -72zM346 532 q82 82 143 157q72 99 100 130q17 27 23 33l69 88q-13 13 -13 15l-33 41h2l-138 130l-89 95h2l-43 39l46 76q64 -61 96 -94.5t60 -58.5l128 -126l28 -36h-3l88 -79q-31 -28 -49 -48.5t-29.5 -33.5t-18 -23t-14.5 -18h3l-38 -41l-64 -77l-44 -58q-49 -77 -177 -192z" />
<glyph unicode="&#xbf;" horiz-adv-x="614" d="M36 215q0 46 28 116.5t64 126.5l46 72l26 46l46 97q28 54 33 110.5t5 109.5v159l-2 16v327q0 23 2 39v132q0 44 3 67h94q-10 -74 -10 -151l-2 -15v-41q-3 -15 -3 -32v-326l3 -16v-28q2 -19 2 -108.5t-7.5 -155.5t-38.5 -123q-5 -20 -21 -45l-53 -90l-18 -34l-15 -33 q-93 -144 -93 -230q0 -33 6 -49v3q18 -44 23 -46q41 -23 70.5 -23t48.5 5q16 4 32 13h-3q13 5 23 8q25 9 32 22t8 28.5t1 25.5t4 27t4 63l87 -3q0 -59 -5 -84v-21q-3 -7 -8 -31.5t-18 -52.5q-11 -14 -51 -41l-46 -26v3q-3 -4 -23 -11h2q-38 -10 -94.5 -10t-85.5 19 q-70 44 -91 117v15q-5 13 -5 59zM287 1731l13 97h84l-5 -108q-26 0 -50 4z" />
<glyph unicode="&#xc0;" d="M36 3l92 -3q15 127 41 228l8 31l12 71q0 5 3 10l20 98q37 201 103 412l18 66l15 39q10 -5 23 -5l49 -3l31 3h87l20 2h18q43 5 92 5q25 -150 110 -499l5 -30q13 -44 22 -78.5t19 -65.5l28 -87q10 -31 14 -59q11 -77 43 -130h100q-30 48 -52 120l-20 90l-31 105v-3l-10 31 q-3 13 -5.5 24.5t-7.5 23.5q-13 34 -22 76t-28 126.5t-38 174.5q-49 230 -68 343l-10 59l-8 64q-5 15 -6.5 31.5t-3.5 34.5l-33 190l-23 107l-3 8l-18 87l-8 48l-38 167l-69 -5q-7 -86 -36 -190l-8 -20q0 -26 -7 -51l-8 -31q-5 -20 -9 -42t-11 -48q-14 -28 -34 -76l-13 -47 l-28 -84q-10 -33 -19 -70.5t-22 -72.5l-87 -302q-70 -237 -86 -352q-19 -133 -49 -250v2q-37 -110 -54 -273zM361 1034q30 126 77 254l18 56q5 13 10 28.5t10 27.5l36 103q15 30 20 105v15q3 13 3 19.5t5 18.5q8 -36 18 -74l18 -107l33 -187q3 -18 5.5 -36t7.5 -42.5 t9 -52.5t9 -59l10 -56l-166 -15h-87t-36 2zM384 2048l5 95l164 -82h-3q10 -5 13 -5l10 -8v3l123 -62l-10 -84q-36 17 -89.5 39t-56.5 25t-5 2q-24 5 -84 41z" />
<glyph unicode="&#xc1;" d="M36 3q17 165 54 273v-2q29 103 41 192q23 167 94 410l87 302q13 36 22 73t19 70l28 84l13 47q16 41 34 76q8 26 11.5 47.5t8.5 42.5l8 31q8 26 7 51l8 20q29 105 36 190l69 5l38 -167l8 -48l44 -202l28 -159l5 -31q3 -18 4 -34.5t6 -31.5l8 -64l10 -59q53 -314 143 -674 q0 -12 13 -46q5 -13 7.5 -24t5.5 -24l10 -31v3l31 -105l20 -90q17 -68 52 -120h-100q-26 44 -32.5 73t-10.5 57.5t-14 58.5l-28 87q-10 31 -19 65.5t-22 78.5l-5 30q-81 331 -110 499q-49 0 -92 -5h-18l-20 -2h-87l-31 -3l-49 3q-13 0 -23 5l-15 -39l-13 -46l-5 -20 q-66 -211 -103 -412l-17 -82l-3 -16q-3 -5 -3 -10l-12 -71l-8 -31q-25 -96 -41 -228zM361 1034q3 -2 23 -2h100l23 2q36 5 65.5 6.5t77.5 6.5l-10 56q-5 31 -9 59t-9 52.5t-7.5 42.5t-5.5 36l-28 161l-23 133q-10 38 -18 74q-5 -13 -5 -19t-3 -19v-15q-8 -81 -20 -105 l-36 -103q-5 -13 -10 -28t-10 -28l-18 -56q-46 -122 -77 -254zM384 1989l120 62v-3q8 8 11 8l7 5h-2q41 18 69 32t59 29l43 21l5 -95l-66 -36q-28 -15 -46.5 -26t-31.5 -13q-14 -2 -35 -15q-31 -13 -63 -25.5t-60 -27.5z" />
<glyph unicode="&#xc2;" d="M36 3q17 165 54 273v-2q29 103 41 192q23 167 94 410l87 302q13 36 22 73t19 70l28 84l13 47q16 41 34 76q8 26 11.5 47.5t8.5 42.5l8 31q8 26 7 51l8 20q29 105 36 190l69 5l38 -167l8 -48l44 -202l28 -159l5 -31q3 -18 4 -34.5t6 -31.5l8 -64l10 -59q53 -314 143 -674 q0 -12 13 -46q5 -13 7.5 -24t5.5 -24l10 -31v3l31 -105l20 -90q17 -68 52 -120h-100q-26 44 -32.5 73t-10.5 57.5t-14 58.5l-28 87q-10 31 -19 65.5t-22 78.5l-5 30q-81 331 -110 499q-49 0 -92 -5h-18l-20 -2h-87l-31 -3l-49 3q-13 0 -23 5l-15 -39l-13 -46l-5 -20 q-66 -211 -103 -412l-17 -82l-3 -16q-3 -5 -3 -10l-12 -71l-8 -31q-25 -96 -41 -228zM361 1034q3 -2 23 -2h100l23 2q36 5 65.5 6.5t77.5 6.5l-10 56q-5 31 -9 59t-9 52.5t-7.5 42.5t-5.5 36l-28 161l-23 133q-10 38 -18 74q-5 -13 -5 -19t-3 -19v-15q-8 -81 -20 -105 l-36 -103q-5 -13 -10 -28t-10 -28l-18 -56q-46 -122 -77 -254zM384 1976q43 23 90 57q44 38 82 53l156 -125l-13 -87l-115 82l-26 23q-56 -36 -99.5 -60.5t-71.5 -42.5z" />
<glyph unicode="&#xc3;" d="M36 3q17 165 54 273v-2q29 103 41 192q23 167 94 410l87 302q13 36 22 73t19 70l28 84l13 47q16 41 34 76q8 26 11.5 47.5t8.5 42.5l8 31q8 26 7 51l8 20q29 105 36 190l69 5l38 -167l8 -48l44 -202l28 -159l5 -31q3 -18 4 -34.5t6 -31.5l8 -64l10 -59q53 -314 143 -674 q0 -12 13 -46q5 -13 7.5 -24t5.5 -24l10 -31v3l31 -105l20 -90q17 -68 52 -120h-100q-26 44 -32.5 73t-10.5 57.5t-14 58.5l-28 87q-10 31 -19 65.5t-22 78.5l-5 30q-81 331 -110 499q-49 0 -92 -5h-18l-20 -2h-87l-31 -3l-49 3q-13 0 -23 5l-15 -39l-13 -46l-5 -20 q-66 -211 -103 -412l-17 -82l-3 -16q-3 -5 -3 -10l-12 -71l-8 -31q-25 -96 -41 -228zM361 1034q3 -2 23 -2h100l23 2q36 5 65.5 6.5t77.5 6.5l-10 56q-5 31 -9 59t-9 52.5t-7.5 42.5t-5.5 36l-28 161l-23 133q-10 38 -18 74q-5 -13 -5 -19t-3 -19v-15q-8 -81 -20 -105 l-36 -103q-5 -13 -10 -28t-10 -28l-18 -56q-46 -122 -77 -254zM376 1999q76 61 114 65q47 5 94 -21q31 -27 135 59l5 -105q-51 -44 -103.5 -46.5t-71.5 11.5t-38 14t-68 -41z" />
<glyph unicode="&#xc4;" d="M36 3q17 165 54 273v-2q29 103 41 192q23 167 94 410l87 302q13 36 22 73t19 70l28 84l13 47q16 41 34 76q8 26 11.5 47.5t8.5 42.5l8 31q8 26 7 51l8 20q29 105 36 190l69 5l38 -167l8 -48l44 -202l28 -159l5 -31q3 -18 4 -34.5t6 -31.5l8 -64l10 -59q53 -314 143 -674 q0 -12 13 -46q5 -13 7.5 -24t5.5 -24l10 -31v3l31 -105l20 -90q17 -68 52 -120h-100q-26 44 -32.5 73t-10.5 57.5t-14 58.5l-28 87q-10 31 -19 65.5t-22 78.5l-5 30q-81 331 -110 499q-49 0 -92 -5h-18l-20 -2h-87l-31 -3l-49 3q-13 0 -23 5l-15 -39l-13 -46l-5 -20 q-66 -211 -103 -412l-17 -82l-3 -16q-3 -5 -3 -10l-12 -71l-8 -31q-25 -96 -41 -228zM325 1951l10 87l172 -8v-87q-26 3 -56 3h-54q-24 0 -54 5h-18zM361 1034q3 -2 23 -2h100l23 2q36 5 65.5 6.5t77.5 6.5l-10 56q-5 31 -9 59t-9 52.5t-7.5 42.5t-5.5 36l-28 161l-23 133 q-10 38 -18 74q-5 -13 -5 -19t-3 -19v-15q-8 -81 -20 -105l-36 -103q-5 -13 -10 -28t-10 -28l-18 -56q-46 -122 -77 -254zM566 2030h192l-3 -87q-23 3 -59 3h-56q-33 0 -46 -1.5t-26 1.5z" />
<glyph unicode="&#xc6;" horiz-adv-x="1789" d="M36 3q17 165 54 273v-2q29 103 41 192q23 167 94 410l87 302q13 36 22 73t19 70l28 84l13 47q16 41 34 76q8 26 11.5 47.5t8.5 42.5l8 31q8 26 7 51l8 20q29 105 36 190l69 5l38 -167l8 -48l44 -202l28 -159l5 -31q3 -18 4 -34.5t6 -31.5l8 -64l10 -59q53 -314 143 -674 q0 -12 13 -46q5 -13 7.5 -24t5.5 -24l10 -31v3l31 -105l20 -90q17 -68 52 -120h-100q-26 44 -32.5 73t-10.5 57.5t-14 58.5l-28 87q-10 31 -19 65.5t-22 78.5l-5 30q-81 331 -110 499q-49 0 -92 -5h-18l-20 -2h-87l-31 -3l-49 3q-13 0 -23 5l-15 -39l-13 -46l-5 -20 q-66 -211 -103 -412l-17 -82l-3 -16q-3 -5 -3 -10l-12 -71l-8 -31q-25 -96 -41 -228zM361 1034q3 -2 23 -2h100l23 2q36 5 65.5 6.5t77.5 6.5l-10 56q-5 31 -9 59t-9 52.5t-7.5 42.5t-5.5 36l-28 161l-23 133q-10 38 -18 74q-5 -13 -5 -19t-3 -19v-15q-8 -81 -20 -105 l-36 -103q-5 -13 -10 -28t-10 -28l-18 -56q-46 -122 -77 -254zM1019 3l3 58q5 13 5 19v120q0 25 2 53v13q13 43 13 330v152q0 38 3 69v89l2 21v30l-2 16v97l-11 95q-10 56 -10 128l3 36v117q0 21 2 44l8 90l8 76v94l2 91v10l3 18v15h84l8 -2h211t142 -3l144 -8q10 -3 33 -2 h15l64 2v-94q-8 -3 -18 -3h-43l-97 8h-11q-59 0 -98 5q-64 8 -201 8h-141l-13 2q-2 -24 -2 -85v-82q0 -20 -6 -50l-7 -93v-93l-3 -76v-93q0 -32 13 -65l28 5q30 5 87 5l138 10h84l87 -8h106l-3 -87h-115q-13 0 -25.5 -1t-22.5 4h2q-18 5 -36 5h-77l-138 -10 q-34 0 -65.5 -6.5t-36.5 -6.5h-10v-105l2 -8v-105l-2 -38q-3 -31 -3 -68v-150q0 -191 -5 -270q-8 -109 -8 -178v-48h289t159 5h13l8 3h89l13 2h39v-87h-38q-12 0 -57 -5h-31q-98 -10 -218 -10h-64l-12 2h-185l-48 -7h-49z" />
<glyph unicode="&#xc7;" horiz-adv-x="1615" d="M67 798q0 97 10 157q38 231 74 330q68 210 151 284q115 113 263.5 195t315.5 89h56l10 3h59q137 0 210 -20h-3q95 -20 177 -91t131 -163l-64 -61q-49 90 -118 147t-129 72q-99 26 -204 26l-15 -2h-105q-241 -18 -525 -259q-44 -49 -73 -118t-52 -135q-23 -54 -35 -114 t-24 -117l-8 -56l-3 -15q-3 -5 -2 -5v-3l-3 -10v-13q-7 -39 -7 -80v-54q0 -14 2 -32v-26q3 -36 5.5 -69t17.5 -79.5t53.5 -110.5t79.5 -112h-2q116 -116 210 -154q177 -82 322 -82h53q162 0 277 41q87 46 159 105v-2q77 77 77 123l92 -3q-4 -91 -87 -164q-53 -69 -202 -138 q-52 -26 -141.5 -36t-114.5 -11.5t-59 -1.5h-56l-3 -5l-10 -13q49 -19 77 -40q77 -58 59 -131q-13 -51 -60.5 -88.5t-84.5 -51.5q-86 -32 -255 -29l44 92q109 0 155 17q92 32 112 90q2 8 2 11q-85 46 -190 61l49 92q-19 0 -23 6q-3 0 -5 2h-3q-173 46 -223 67 q-132 64 -235 184h2q-49 54 -94.5 128t-61 124t-18 92.5t-5.5 82.5v24q-2 9 -2 50z" />
<glyph unicode="&#xc8;" horiz-adv-x="842" d="M46 3l3 58q5 13 5 19v120q0 25 2 53v13q13 43 13 330v152q0 38 3 69v89l2 21v30l-2 16v97l-11 95q-10 56 -10 128l3 36v117q0 21 2 44l8 90l8 76v94l2 91v10l3 18v15h84l8 -2h211t142 -3l144 -8q10 -3 33 -2h15l64 2v-94q-8 -3 -18 -3h-43l-97 8h-11q-59 0 -98 5 q-64 8 -201 8h-141l-13 2q-2 -24 -2 -85v-82q0 -20 -6 -50l-7 -93v-93l-3 -76v-93q0 -32 13 -65l28 5q30 5 87 5l138 10h84l87 -8h106l-3 -87h-115q-13 0 -25.5 -1t-22.5 4h2q-18 5 -36 5h-77l-138 -10q-34 0 -65.5 -6.5t-36.5 -6.5h-10v-105l2 -8v-105l-2 -38 q-3 -31 -3 -68v-150q0 -191 -5 -270q-8 -109 -8 -178v-48h289t159 5h13l8 3h89l13 2h39v-87h-38q-12 0 -57 -5h-31q-98 -10 -218 -10h-64l-12 2h-185l-48 -7h-49zM236 2097l40 82l164 -121l100 -69l-46 -72l-212 151z" />
<glyph unicode="&#xc9;" horiz-adv-x="842" d="M46 3l3 58q5 13 5 19v120q0 25 2 53v13q13 43 13 330v152q0 38 3 69v89l2 21v30l-2 16v97l-11 95q-10 56 -10 128l3 36v117q0 21 2 44l8 90l8 76v94l2 91v10l3 18v15h84l8 -2h211t142 -3l144 -8q10 -3 33 -2h15l64 2v-94q-8 -3 -18 -3h-43l-97 8h-11q-59 0 -98 5 q-64 8 -201 8h-141l-13 2q-2 -24 -2 -85v-82q0 -20 -6 -50l-7 -93v-93l-3 -76v-93q0 -32 13 -65l28 5q30 5 87 5l138 10h84l87 -8h106l-3 -87h-115q-13 0 -25.5 -1t-22.5 4h2q-18 5 -36 5h-77l-138 -10q-34 0 -65.5 -6.5t-36.5 -6.5h-10v-105l2 -8v-105l-2 -38 q-3 -31 -3 -68v-150q0 -191 -5 -270q-8 -109 -8 -178v-48h289t159 5h13l8 3h89l13 2h39v-87h-38q-12 0 -57 -5h-31q-98 -10 -218 -10h-64l-12 2h-185l-48 -7h-49zM248 2010l133 99l105 82l39 21l38 -77l-115 -79l-146 -118z" />
<glyph unicode="&#xca;" horiz-adv-x="842" d="M46 3l3 58q5 13 5 19v120q0 25 2 53v13q13 43 13 330v152q0 38 3 69v89l2 21v30l-2 16v97l-11 95q-10 56 -10 128l3 36v117q0 21 2 44l8 90l8 76v94l2 91v10l3 18v15h84l8 -2h211t142 -3l144 -8q10 -3 33 -2h15l64 2v-94q-8 -3 -18 -3h-43l-97 8h-11q-59 0 -98 5 q-64 8 -201 8h-141l-13 2q-2 -24 -2 -85v-82q0 -20 -6 -50l-7 -93v-93l-3 -76v-93q0 -32 13 -65l28 5q30 5 87 5l138 10h84l87 -8h106l-3 -87h-115q-13 0 -25.5 -1t-22.5 4h2q-18 5 -36 5h-77l-138 -10q-34 0 -65.5 -6.5t-36.5 -6.5h-10v-105l2 -8v-105l-2 -38 q-3 -31 -3 -68v-150q0 -191 -5 -270q-8 -109 -8 -178v-48h289t159 5h13l8 3h89l13 2h39v-87h-38q-12 0 -57 -5h-31q-98 -10 -218 -10h-64l-12 2h-185l-48 -7h-49zM218 2015q51 26 67.5 38.5t34.5 25.5q75 40 90 43l20 23l202 -138l-20 -92l-85 61q-33 23 -58.5 42.5 t-38.5 26.5q-13 -8 -33.5 -19t-39.5 -25q-85 -63 -137 -91z" />
<glyph unicode="&#xcb;" horiz-adv-x="842" d="M46 3l3 58q5 13 5 19v120q0 25 2 53v13q13 43 13 330v152q0 38 3 69v89l2 21v30l-2 16v97l-11 95q-10 56 -10 128l3 36v117q0 21 2 44l8 90l8 76v94l2 91v10l3 18v15h84l8 -2h211t142 -3l144 -8q10 -3 33 -2h15l64 2v-94q-8 -3 -18 -3h-43l-97 8h-11q-59 0 -98 5 q-64 8 -201 8h-141l-13 2q-2 -24 -2 -85v-82q0 -20 -6 -50l-7 -93v-93l-3 -76v-93q0 -32 13 -65l28 5q30 5 87 5l138 10h84l87 -8h106l-3 -87h-115q-13 0 -25.5 -1t-22.5 4h2q-18 5 -36 5h-77l-138 -10q-34 0 -65.5 -6.5t-36.5 -6.5h-10v-105l2 -8v-105l-2 -38 q-3 -31 -3 -68v-150q0 -191 -5 -270q-8 -109 -8 -178v-48h289t159 5h13l8 3h89l13 2h39v-87h-38q-12 0 -57 -5h-31q-98 -10 -218 -10h-64l-12 2h-185l-48 -7h-49zM205 1933l10 87l172 -8v-87q-26 3 -48 3h-62t-54 5h-18zM445 2012h192l-2 -87q-23 3 -59 3h-56 q-33 0 -46 -1.5t-26 1.5z" />
<glyph unicode="&#xcc;" horiz-adv-x="268" d="M-18 2053l21 90l171 -118l133 -102l-51 -64l-120 89l-26 18q-15 15 -26.5 20.5t-24.5 15.5zM56 576v54q0 25 6 86q22 204 22 299v135l8 245v74l-2 16l7 376h87q0 -103 -7 -159v-217l2 -16v-74q0 -94 -4 -149t-3.5 -95t0.5 -118t-13 -244.5t-13 -245.5t5 -164v-87l3 -97 v-64q0 -36 -3 -95l-90 2q6 56 6 157z" />
<glyph unicode="&#xcd;" horiz-adv-x="268" d="M-26 1923l146 107q5 0 22 16q33 31 129 89l29 -84l-111 -75l-115 -84q-10 -8 -24 -17t-22 -16zM56 576v54q0 25 6 86q22 204 22 299v135l8 245v74l-2 16l7 376h87q0 -103 -7 -159v-217l2 -16v-74q0 -94 -4 -149t-3.5 -95t0.5 -118t-13 -244.5t-13 -245.5t5 -164v-87 l3 -97v-64q0 -36 -3 -95l-90 2q6 56 6 157z" />
<glyph unicode="&#xce;" horiz-adv-x="268" d="M-64 1946l105 66q68 36 92 46l18 18l200 -138l-18 -85l-179 123q-24 -9 -58 -33q-97 -66 -157 -97zM56 576v54q0 25 6 86q22 204 22 299v135l8 245v74l-2 16l7 376h87q0 -103 -7 -159v-217l2 -16v-74q0 -94 -4 -149t-3.5 -95t0.5 -118t-13 -244.5t-13 -245.5t5 -164v-87 l3 -97v-64q0 -36 -3 -95l-90 2q6 56 6 157z" />
<glyph unicode="&#xcf;" horiz-adv-x="268" d="M-77 1894l10 87l172 -7v-87q-17 2 -65 2h-58l-41 5h-18zM56 576v54q0 25 6 86q22 204 22 299v135l8 245v74l-2 16l7 376h87q0 -103 -7 -159v-217l2 -16v-74q0 -94 -4 -149t-3.5 -95t0.5 -118t-13 -244.5t-13 -245.5t5 -164v-87l3 -97v-64q0 -36 -3 -95l-90 2q6 56 6 157z M164 1974h192l-3 -87q-15 2 -81.5 2t-79.5 -1t-26 1z" />
<glyph unicode="&#xd1;" horiz-adv-x="1131" d="M67 236q0 132 5 192q3 36 4 60t4 32q4 17 12 74l3 8q7 78 7 245v374q0 326 21 525l-3 41q-3 3 -1.5 8t1.5 10v43h90l51 -102l49 -95l15 -36v3q15 -20 21 -31l20 -36l128 -312q10 -20 18 -44.5t20 -52.5q16 -37 57 -125q84 -180 120 -276q55 -146 72 -183 q52 -142 105 -266q0 187 12 297q21 206 21 310v127q0 21 -3 44q0 94 -5 154v15q-5 85 -5 213v10q0 64 -7 141l-3 7q-5 31 -5 64v64q0 91 15 144l87 -3q-18 -64 -18 -134.5t8 -141.5v-39q8 -27 8 -102v-10q0 -143 7 -282l6 -100q3 -20 2.5 -47t-0.5 -82q0 -70 -15 -252 q-21 -255 -21 -379v-179q0 -54 3 -93h-97l-57 174q-15 33 -30.5 73t-32.5 83q-32 76 -67.5 169t-64 160.5t-56.5 137.5l-53 138l-95 207l-10 28q-14 23 -32 73q-55 146 -99 232l-38 79l-46 72q-8 -110 -8 -220v-597q0 -83 -5 -235v-26l-10 -79q-11 -44 -13.5 -91.5 t-2.5 -160t26 -211.5l-90 -3q-25 107 -25 195zM292 1894q90 90 151 90q43 0 61.5 -13t25.5 -13l38 -15q33 -15 105 31l39 28l56 -69q-72 -44 -133.5 -64.5t-81.5 -18t-26 8.5l-18 15l3 -3q-10 0 -20 5q-32 16 -47 16t-64 -39z" />
<glyph unicode="&#xd2;" horiz-adv-x="1656" d="M54 823.5q0 116.5 10 196.5q28 219 113 362q10 10 10 16l20 36q78 123 141 181l46 46v-2l51 46q79 60 120 82q127 67 203 74q8 0 23 3q25 5 77 5q75 0 164 -31l36 -13q46 -18 92 -37t105 -64q133 -102 187 -239q76 -255 76 -450q0 -402 -187 -656q-183 -229 -431 -310 q-86 -28 -159 -28q-104 0 -188 54l-23 13q-10 0 -13 7l-10 8l3 -3q-10 3 -18 10.5t-8 12.5q-32 25 -54 34l-18 12v-2l-20 13q-10 10 -28 18q-54 22 -108 76q-113 108 -162.5 260.5t-49.5 269zM138 824.5q0 -107.5 42.5 -242t139.5 -224.5q38 -36 73 -56t73 -41l110 -74 q96 -53 159 -56h5q137 0 296 92q138 80 234 205q72 107 123 276q48 161 48 305q0 91 -26.5 229.5t-48.5 213.5q-40 135 -158 207q-86 59 -262 107q-45 13 -64 13q-38 0 -60 -5q-13 -3 -24.5 -2.5t-32 -3.5t-70.5 -24.5t-86 -41.5q-81 -37 -135 -97l-36 -33l-31 -23v2 q-74 -65 -120 -158l-36 -52q-66 -108 -103 -337q-10 -72 -10 -179.5zM686 2115l21 97q93 -72 156 -113l-5 -7q6 6 41 -11h-3q5 -5 26 -15q24 -11 151 -102l23 -21l-49 -64l-49 33q-38 28 -79 54t-77 49l-102 66q5 0 -9 6.5t-22 11.5z" />
<glyph unicode="&#xd3;" horiz-adv-x="1656" d="M54 823.5q0 116.5 10 196.5q28 219 113 362q10 10 10 16l20 36q78 123 141 181l46 46v-2l51 46q79 60 120 82q127 67 203 74q8 0 23 3q25 5 77 5q75 0 164 -31l36 -13q46 -18 92 -37t105 -64q133 -102 187 -239q76 -255 76 -450q0 -402 -187 -656q-183 -229 -431 -310 q-86 -28 -159 -28q-104 0 -188 54l-23 13q-10 0 -13 7l-10 8l3 -3q-10 3 -18 10.5t-8 12.5q-32 25 -54 34l-18 12v-2l-20 13q-10 10 -28 18q-54 22 -108 76q-113 108 -162.5 260.5t-49.5 269zM138 824.5q0 -107.5 42.5 -242t139.5 -224.5q38 -36 73 -56t73 -41l110 -74 q96 -53 159 -56h5q137 0 296 92q138 80 234 205q72 107 123 276q48 161 48 305q0 91 -26.5 229.5t-48.5 213.5q-40 135 -158 207q-86 59 -262 107q-45 13 -64 13q-38 0 -60 -5q-13 -3 -24.5 -2.5t-32 -3.5t-70.5 -24.5t-86 -41.5q-81 -37 -135 -97l-36 -33l-31 -23v2 q-74 -65 -120 -158l-36 -52q-66 -108 -103 -337q-10 -72 -10 -179.5zM681 1935q100 80 166 118l218 138l26 -87l-369 -233z" />
<glyph unicode="&#xd4;" horiz-adv-x="1656" d="M54 823.5q0 116.5 10 196.5q28 219 113 362q10 10 10 16l20 36q78 123 141 181l46 46v-2l51 46q79 60 120 82q127 67 203 74q8 0 23 3q25 5 77 5q75 0 164 -31l36 -13q46 -18 92 -37t105 -64q133 -102 187 -239q76 -255 76 -450q0 -402 -187 -656q-183 -229 -431 -310 q-86 -28 -159 -28q-104 0 -188 54l-23 13q-10 0 -13 7l-10 8l3 -3q-10 3 -18 10.5t-8 12.5q-32 25 -54 34l-18 12v-2l-20 13q-10 10 -28 18q-54 22 -108 76q-113 108 -162.5 260.5t-49.5 269zM138 824.5q0 -107.5 42.5 -242t139.5 -224.5q38 -36 73 -56t73 -41l110 -74 q96 -53 159 -56h5q137 0 296 92q138 80 234 205q72 107 123 276q48 161 48 305q0 91 -26.5 229.5t-48.5 213.5q-40 135 -158 207q-86 59 -262 107q-45 13 -64 13q-38 0 -60 -5q-13 -3 -24.5 -2.5t-32 -3.5t-70.5 -24.5t-86 -41.5q-81 -37 -135 -97l-36 -33l-31 -23v2 q-74 -65 -120 -158l-36 -52q-66 -108 -103 -337q-10 -72 -10 -179.5zM535 1961l10 3l28 15q23 13 50 28q51 29 63 33h-2q10 3 30 18l136 77l276 -184l-20 -85l-251 169q-13 -8 -25.5 -14t-30.5 -16.5t-45 -25.5t-50 -31l-166 -92z" />
<glyph unicode="&#xd5;" horiz-adv-x="1656" d="M54 823.5q0 116.5 10 196.5q28 219 113 362q10 10 10 16l20 36q78 123 141 181l46 46v-2l51 46q79 60 120 82q127 67 203 74q8 0 23 3q25 5 77 5q75 0 164 -31l36 -13q46 -18 92 -37t105 -64q133 -102 187 -239q76 -255 76 -450q0 -402 -187 -656q-183 -229 -431 -310 q-86 -28 -159 -28q-104 0 -188 54l-23 13q-10 0 -13 7l-10 8l3 -3q-10 3 -18 10.5t-8 12.5q-32 25 -54 34l-18 12v-2l-20 13q-10 10 -28 18q-54 22 -108 76q-113 108 -162.5 260.5t-49.5 269zM138 824.5q0 -107.5 42.5 -242t139.5 -224.5q38 -36 73 -56t73 -41l110 -74 q96 -53 159 -56h5q137 0 296 92q138 80 234 205q72 107 123 276q48 161 48 305q0 91 -26.5 229.5t-48.5 213.5q-40 135 -158 207q-86 59 -262 107q-45 13 -64 13q-38 0 -60 -5q-13 -3 -24.5 -2.5t-32 -3.5t-70.5 -24.5t-86 -41.5q-81 -37 -135 -97l-36 -33l-31 -23v2 q-74 -65 -120 -158l-36 -52q-66 -108 -103 -337q-10 -72 -10 -179.5zM581 1971q90 79 147.5 97t85.5 10q45 -14 77 -39q64 -47 100 -55q49 -11 171 84l5 -104q-145 -113 -248 -50q-31 19 -59 42v-3q-39 30 -63 37t-56 -9.5t-96 -75.5z" />
<glyph unicode="&#xd6;" horiz-adv-x="1656" d="M54 823.5q0 116.5 10 196.5q28 219 113 362q10 10 10 16l20 36q78 123 141 181l46 46v-2l51 46q79 60 120 82q127 67 203 74q8 0 23 3q25 5 77 5q75 0 164 -31l36 -13q46 -18 92 -37t105 -64q133 -102 187 -239q76 -255 76 -450q0 -402 -187 -656q-183 -229 -431 -310 q-86 -28 -159 -28q-104 0 -188 54l-23 13q-10 0 -13 7l-10 8l3 -3q-10 3 -18 10.5t-8 12.5q-32 25 -54 34l-18 12v-2l-20 13q-10 10 -28 18q-54 22 -108 76q-113 108 -162.5 260.5t-49.5 269zM138 824.5q0 -107.5 42.5 -242t139.5 -224.5q38 -36 73 -56t73 -41l110 -74 q96 -53 159 -56h5q137 0 296 92q138 80 234 205q72 107 123 276q48 161 48 305q0 91 -26.5 229.5t-48.5 213.5q-40 135 -158 207q-86 59 -262 107q-45 13 -64 13q-38 0 -60 -5q-13 -3 -24.5 -2.5t-32 -3.5t-70.5 -24.5t-86 -41.5q-81 -37 -135 -97l-36 -33l-31 -23v2 q-74 -65 -120 -158l-36 -52q-66 -108 -103 -337q-10 -72 -10 -179.5zM604 1940v93l248 -8v-92q-15 2 -109 2t-139 5zM922 1938v97q64 -10 110 -10h140l-2 -92q-17 2 -93 2h-108q-32 0 -47 3z" />
<glyph unicode="&#xd7;" horiz-adv-x="1052" d="M143 1359l54 64q26 -15 38.5 -31.5t25.5 -29.5h-2l17 -18l26 -23q16 -20 27 -33t17 -26l12 -23l49 -64q0 -5 2.5 -7.5t5.5 -7.5t18 -24.5t31 -41.5q18 -25 35 -42l44 49l18 23l18 31l61 84q18 28 26 38q5 8 15 19.5t15 21.5l59 75l59 -67l-41 -41q-8 -8 -10 -13l-8 -7 l3 2q-13 -20 -24.5 -40.5t-24.5 -33.5l-59 -85l-30 -40l-59 -93l84 -102q110 -135 205 -230l-49 -75q-118 118 -238 267l-25 35l-39 39l-15 -18q-36 -36 -58 -64q-34 -43 -52 -64l-72 -85h3l-105 -97l-52 69l157 151h-3q28 44 62.5 86t47.5 58l36 38l-13 13l-13 15h3 q-48 57 -104.5 137.5t-77.5 103.5v-3q-18 10 -22 23t-7.5 15.5t-6.5 7.5h3z" />
<glyph unicode="&#xd9;" horiz-adv-x="1105" d="M77 1178v30q0 147 5 259v51l2 28v21q6 138 6 294h84v-139q0 -78 -2 -140v-26l-3 -33v-56l-3 -67v-222q0 -162 13 -235t15.5 -124t5.5 -95v-46q0 -236 71 -409q49 -98 103 -121q0 -5 19.5 -7.5t38 -2.5t59.5 15.5t80 28.5q132 84 222 404q75 267 75 697v101q0 50 -5 120 q-8 112 -8 383h85q0 -276 6 -362.5t6 -142.5v-99q0 -455 -74 -730q-65 -240 -158 -362q-36 -48 -91.5 -73t-105 -46t-98.5 -21t-79 13h-6q-103 37 -156 166q-44 119 -59 297q-5 33 -5 110l-2 16v25q-3 49 -5.5 108t-14.5 118q-21 97 -21 274zM320 2068l18 90l164 -120 l133 -103l-44 -64l-125 87q-36 18 -45 28.5t-23 19.5q-25 16 -78 62z" />
<glyph unicode="&#xda;" horiz-adv-x="1105" d="M77 1178v30q0 147 5 259v51l2 28v21q6 138 6 294h84v-139q0 -78 -2 -140v-26l-3 -33v-56l-3 -67v-222q0 -162 13 -235t15.5 -124t5.5 -95v-46q0 -236 71 -409q49 -98 103 -121q0 -5 19.5 -7.5t38 -2.5t59.5 15.5t80 28.5q132 84 222 404q75 267 75 697v101q0 50 -5 120 q-8 112 -8 383h85q0 -276 6 -362.5t6 -142.5v-99q0 -455 -74 -730q-65 -240 -158 -362q-36 -48 -91.5 -73t-105 -46t-98.5 -21t-79 13h-6q-103 37 -156 166q-44 119 -59 297q-5 33 -5 110l-2 16v25q-3 49 -5.5 108t-14.5 118q-21 97 -21 274zM333 1905l135 105l159 112 l28 -92l-151 -100l-117 -92z" />
<glyph unicode="&#xdb;" horiz-adv-x="1105" d="M77 1178v30q0 147 5 259v51l2 28v21q6 138 6 294h84v-139q0 -78 -2 -140v-26l-3 -33v-56l-3 -67v-222q0 -162 13 -235t15.5 -124t5.5 -95v-46q0 -236 71 -409q49 -98 103 -121q0 -5 19.5 -7.5t38 -2.5t59.5 15.5t80 28.5q132 84 222 404q75 267 75 697v101q0 50 -5 120 q-8 112 -8 383h85q0 -276 6 -362.5t6 -142.5v-99q0 -455 -74 -730q-65 -240 -158 -362q-36 -48 -91.5 -73t-105 -46t-98.5 -21t-79 13h-6q-103 37 -156 166q-44 119 -59 297q-5 33 -5 110l-2 16v25q-3 49 -5.5 108t-14.5 118q-21 97 -21 274zM300 1981q78 45 102 64 q65 37 87 44l20 20l215 -145l-58 -64l-62 43l-92 69q-17 -6 -53 -31q-115 -79 -157 -99z" />
<glyph unicode="&#xdc;" horiz-adv-x="1105" d="M77 1178v30q0 147 5 259v51l2 28v21q6 138 6 294h84v-139q0 -78 -2 -140v-26l-3 -33v-56l-3 -67v-222q0 -162 13 -235t15.5 -124t5.5 -95v-46q0 -236 71 -409q49 -98 103 -121q0 -5 19.5 -7.5t38 -2.5t59.5 15.5t80 28.5q132 84 222 404q75 267 75 697v101q0 50 -5 120 q-8 112 -8 383h85q0 -276 6 -362.5t6 -142.5v-99q0 -455 -74 -730q-65 -240 -158 -362q-36 -48 -91.5 -73t-105 -46t-98.5 -21t-79 13h-6q-103 37 -156 166q-44 119 -59 297q-5 33 -5 110l-2 16v25q-3 49 -5.5 108t-14.5 118q-21 97 -21 274zM236 1930v92l212 -5v-92 q-23 3 -66 3h-121zM540 1923v97q51 -8 61.5 -5.5t25.5 2.5h141l-3 -92q-26 3 -68 3h-65q-36 0 -56 -4t-36 -1z" />
<glyph unicode="&#xe0;" d="M36 3l92 -3q15 127 41 228l8 31l12 71q0 5 3 10l20 98q37 201 103 412l18 66l15 39q10 -5 23 -5l49 -3l31 3h87l20 2h18q43 5 92 5q25 -150 110 -499l5 -30q13 -44 22 -78.5t19 -65.5l28 -87q10 -31 14 -59q11 -77 43 -130h100q-30 48 -52 120l-20 90l-31 105v-3l-10 31 q-3 13 -5.5 24.5t-7.5 23.5q-13 34 -22 76t-28 126.5t-38 174.5q-49 230 -68 343l-10 59l-8 64q-5 15 -6.5 31.5t-3.5 34.5l-33 190l-23 107l-3 8l-18 87l-8 48l-38 167l-69 -5q-7 -86 -36 -190l-8 -20q0 -26 -7 -51l-8 -31q-5 -20 -9 -42t-11 -48q-14 -28 -34 -76l-13 -47 l-28 -84q-10 -33 -19 -70.5t-22 -72.5l-87 -302q-70 -237 -86 -352q-19 -133 -49 -250v2q-37 -110 -54 -273zM361 1034q30 126 77 254l18 56q5 13 10 28.5t10 27.5l36 103q15 30 20 105v15q3 13 3 19.5t5 18.5q8 -36 18 -74l18 -107l33 -187q3 -18 5.5 -36t7.5 -42.5 t9 -52.5t9 -59l10 -56l-166 -15h-87t-36 2zM384 2045l5 93l164 -80h-3q10 -5 13 -5l10 -8v3l123 -64l-10 -84q-31 15 -63 28q-76 29 -83 36q-3 3 -5 2q-22 4 -40.5 15t-46.5 26z" />
<glyph unicode="&#xe1;" d="M36 3q17 165 54 273v-2q29 103 41 192q23 167 94 410l87 302q13 36 22 73t19 70l28 84l13 47q16 41 34 76q8 26 11.5 47.5t8.5 42.5l8 31q8 26 7 51l8 20q29 105 36 190l69 5l38 -167l8 -48l44 -202l28 -159l5 -31q3 -18 4 -34.5t6 -31.5l8 -64l10 -59q53 -314 143 -674 q0 -12 13 -46q5 -13 7.5 -24t5.5 -24l10 -31v3l31 -105l20 -90q17 -68 52 -120h-100q-26 44 -32.5 73t-10.5 57.5t-14 58.5l-28 87q-10 31 -19 65.5t-22 78.5l-5 30q-81 331 -110 499q-49 0 -92 -5h-18l-20 -2h-87l-31 -3l-49 3q-13 0 -23 5l-15 -39l-13 -46l-5 -20 q-66 -211 -103 -412l-17 -82l-3 -16q-3 -5 -3 -10l-12 -71l-8 -31q-25 -96 -41 -228zM361 1034q3 -2 23 -2h100l23 2q36 5 65.5 6.5t77.5 6.5l-10 56q-5 31 -9 59t-9 52.5t-7.5 42.5t-5.5 36l-28 161l-23 133q-10 38 -18 74q-5 -13 -5 -19t-3 -19v-15q-8 -81 -20 -105 l-36 -103q-5 -13 -10 -28t-10 -28l-18 -56q-46 -122 -77 -254zM384 1984l120 64v-3q8 8 11 8l7 5h-2q41 15 69 29.5t59 29.5l43 21l5 -93l-66 -38q-28 -15 -46.5 -26t-31.5 -13q-14 -2 -35 -15q-91 -36 -123 -53z" />
<glyph unicode="&#xe2;" d="M36 3q17 165 54 273v-2q29 103 41 192q23 167 94 410l87 302q13 36 22 73t19 70l28 84l13 47q16 41 34 76q8 26 11.5 47.5t8.5 42.5l8 31q8 26 7 51l8 20q29 105 36 190l69 5l38 -167l8 -48l44 -202l28 -159l5 -31q3 -18 4 -34.5t6 -31.5l8 -64l10 -59q53 -314 143 -674 q0 -12 13 -46q5 -13 7.5 -24t5.5 -24l10 -31v3l31 -105l20 -90q17 -68 52 -120h-100q-26 44 -32.5 73t-10.5 57.5t-14 58.5l-28 87q-10 31 -19 65.5t-22 78.5l-5 30q-81 331 -110 499q-49 0 -92 -5h-18l-20 -2h-87l-31 -3l-49 3q-13 0 -23 5l-15 -39l-13 -46l-5 -20 q-66 -211 -103 -412l-17 -82l-3 -16q-3 -5 -3 -10l-12 -71l-8 -31q-25 -96 -41 -228zM361 1034q3 -2 23 -2h100l23 2q36 5 65.5 6.5t77.5 6.5l-10 56q-5 31 -9 59t-9 52.5t-7.5 42.5t-5.5 36l-28 161l-23 133q-10 38 -18 74q-5 -13 -5 -19t-3 -19v-15q-8 -81 -20 -105 l-36 -103q-5 -13 -10 -28t-10 -28l-18 -56q-46 -122 -77 -254zM384 1976q43 23 90 57q44 38 82 53l156 -125l-13 -87l-115 82l-26 23q-56 -36 -99.5 -60.5t-71.5 -42.5z" />
<glyph unicode="&#xe3;" d="M36 3q17 165 54 273v-2q29 103 41 192q23 167 94 410l87 302q13 36 22 73t19 70l28 84l13 47q16 41 34 76q8 26 11.5 47.5t8.5 42.5l8 31q8 26 7 51l8 20q29 105 36 190l69 5l38 -167l8 -48l44 -202l28 -159l5 -31q3 -18 4 -34.5t6 -31.5l8 -64l10 -59q53 -314 143 -674 q0 -12 13 -46q5 -13 7.5 -24t5.5 -24l10 -31v3l31 -105l20 -90q17 -68 52 -120h-100q-26 44 -32.5 73t-10.5 57.5t-14 58.5l-28 87q-10 31 -19 65.5t-22 78.5l-5 30q-81 331 -110 499q-49 0 -92 -5h-18l-20 -2h-87l-31 -3l-49 3q-13 0 -23 5l-15 -39l-13 -46l-5 -20 q-66 -211 -103 -412l-17 -82l-3 -16q-3 -5 -3 -10l-12 -71l-8 -31q-25 -96 -41 -228zM361 1034q3 -2 23 -2h100l23 2q36 5 65.5 6.5t77.5 6.5l-10 56q-5 31 -9 59t-9 52.5t-7.5 42.5t-5.5 36l-28 161l-23 133q-10 38 -18 74q-5 -13 -5 -19t-3 -19v-15q-8 -81 -20 -105 l-36 -103q-5 -13 -10 -28t-10 -28l-18 -56q-46 -122 -77 -254zM376 1999q76 61 114 65q47 5 94 -21q31 -27 135 59l5 -105q-51 -44 -103.5 -46.5t-71.5 11.5t-38 14t-68 -41z" />
<glyph unicode="&#xe4;" d="M36 3q17 165 54 273v-2q29 103 41 192q23 167 94 410l87 302q13 36 22 73t19 70l28 84l13 47q16 41 34 76q8 26 11.5 47.5t8.5 42.5l8 31q8 26 7 51l8 20q29 105 36 190l69 5l38 -167l8 -48l44 -202l28 -159l5 -31q3 -18 4 -34.5t6 -31.5l8 -64l10 -59q53 -314 143 -674 q0 -12 13 -46q5 -13 7.5 -24t5.5 -24l10 -31v3l31 -105l20 -90q17 -68 52 -120h-100q-26 44 -32.5 73t-10.5 57.5t-14 58.5l-28 87q-10 31 -19 65.5t-22 78.5l-5 30q-81 331 -110 499q-49 0 -92 -5h-18l-20 -2h-87l-31 -3l-49 3q-13 0 -23 5l-15 -39l-13 -46l-5 -20 q-66 -211 -103 -412l-17 -82l-3 -16q-3 -5 -3 -10l-12 -71l-8 -31q-25 -96 -41 -228zM325 1951l10 87l172 -8v-87q-26 3 -56 3h-54q-24 0 -54 5h-18zM361 1034q3 -2 23 -2h100l23 2q36 5 65.5 6.5t77.5 6.5l-10 56q-5 31 -9 59t-9 52.5t-7.5 42.5t-5.5 36l-28 161l-23 133 q-10 38 -18 74q-5 -13 -5 -19t-3 -19v-15q-8 -81 -20 -105l-36 -103q-5 -13 -10 -28t-10 -28l-18 -56q-46 -122 -77 -254zM566 2030h192l-3 -87q-23 3 -59 3h-56q-33 0 -46 -1.5t-26 1.5z" />
<glyph unicode="&#xe6;" horiz-adv-x="1789" d="M36 3q17 165 54 273v-2q29 103 41 192q23 167 94 410l87 302q13 36 22 73t19 70l28 84l13 47q16 41 34 76q8 26 11.5 47.5t8.5 42.5l8 31q8 26 7 51l8 20q29 105 36 190l69 5l38 -167l8 -48l44 -202l28 -159l5 -31q3 -18 4 -34.5t6 -31.5l8 -64l10 -59q53 -314 143 -674 q0 -12 13 -46q5 -13 7.5 -24t5.5 -24l10 -31v3l31 -105l20 -90q17 -68 52 -120h-100q-26 44 -32.5 73t-10.5 57.5t-14 58.5l-28 87q-10 31 -19 65.5t-22 78.5l-5 30q-81 331 -110 499q-49 0 -92 -5h-18l-20 -2h-87l-31 -3l-49 3q-13 0 -23 5l-15 -39l-13 -46l-5 -20 q-66 -211 -103 -412l-17 -82l-3 -16q-3 -5 -3 -10l-12 -71l-8 -31q-25 -96 -41 -228zM361 1034q3 -2 23 -2h100l23 2q36 5 65.5 6.5t77.5 6.5l-10 56q-5 31 -9 59t-9 52.5t-7.5 42.5t-5.5 36l-28 161l-23 133q-10 38 -18 74q-5 -13 -5 -19t-3 -19v-15q-8 -81 -20 -105 l-36 -103q-5 -13 -10 -28t-10 -28l-18 -56q-46 -122 -77 -254zM1019 3l3 58q5 13 5 19v120q0 25 2 53v13q13 43 13 330v152q0 38 3 69v89l2 21v30l-2 16v97l-11 95q-10 56 -10 128l3 36v117q0 21 2 44l8 90l8 76v94l2 91v10l3 18v15h84l8 -2h211t142 -3l144 -8q10 -3 33 -2 h15l64 2v-94q-8 -3 -18 -3h-43l-97 8h-11q-59 0 -98 5q-64 8 -201 8h-141l-13 2q-2 -24 -2 -85v-82q0 -20 -6 -50l-7 -93v-93l-3 -76v-93q0 -32 13 -65l28 5q30 5 87 5l138 10h84l87 -8h106l-3 -87h-115q-13 0 -25.5 -1t-22.5 4h2q-18 5 -36 5h-77l-138 -10 q-34 0 -65.5 -6.5t-36.5 -6.5h-10v-105l2 -8v-105l-2 -38q-3 -31 -3 -68v-150q0 -191 -5 -270q-8 -109 -8 -178v-48h289t159 5h13l8 3h89l13 2h39v-87h-38q-12 0 -57 -5h-31q-98 -10 -218 -10h-64l-12 2h-185l-48 -7h-49z" />
<glyph unicode="&#xe7;" horiz-adv-x="1615" d="M74 770v31q0 53 5 115q33 227 65.5 318.5t69.5 173.5t94.5 133.5t124 100t138.5 86.5q168 89 302 92h54l10 3h56q120 0 210 -19t170.5 -87t129.5 -161l-64 -64q-46 90 -116.5 149t-129.5 73q-101 24 -200 24l-15 -2h-102q-257 -18 -512 -256q-46 -44 -74.5 -112 t-53.5 -137q-39 -129 -62 -291q0 -17 -6.5 -53.5t-6.5 -68.5v-48q0 -15 3 -33v-20q3 -36 5.5 -70.5t14.5 -67.5q46 -180 226 -314q56 -42 106 -69t100 -40t91 -23q61 -15 108 -15h71q167 0 276 41q98 58 146 100q44 28 74 87q11 20 11 38l89 -3q-5 -103 -97 -179 q-111 -90 -184 -125q-65 -23 -148 -32t-109.5 -10.5t-59.5 -1.5h-55q-5 -5 -3.5 -7.5t-3.5 -15.5q10 -5 32 -15t45 -22.5t43.5 -49t7.5 -81t-58 -80.5t-82 -52q-73 -30 -247 -30l39 95q108 0 166 23q86 19 95 71q5 13 -3 22t-18 19v-2q-20 12 -158 36l48 92q-10 3 -20.5 4 t-15.5 6l-12 5l-18 5q-110 18 -192 57q-120 64 -228 179q-106 123 -154 266q-15 42 -15 156v18q-3 15 -3 38z" />
<glyph unicode="&#xe8;" horiz-adv-x="842" d="M46 3l3 58q5 13 5 19v120q0 25 2 53v13q13 43 13 330v152q0 38 3 69v89l2 21v30l-2 16v97l-11 95q-10 56 -10 128l3 36v117q0 21 2 44l8 90l8 76v94l2 91v10l3 18v15h84l8 -2h211t142 -3l144 -8q10 -3 33 -2h15l64 2v-94q-8 -3 -18 -3h-43l-97 8h-11q-59 0 -98 5 q-64 8 -201 8h-141l-13 2q-2 -24 -2 -85v-82q0 -20 -6 -50l-7 -93v-93l-3 -76v-93q0 -32 13 -65l28 5q30 5 87 5l138 10h84l87 -8h106l-3 -87h-115q-13 0 -25.5 -1t-22.5 4h2q-18 5 -36 5h-77l-138 -10q-34 0 -65.5 -6.5t-36.5 -6.5h-10v-105l2 -8v-105l-2 -38 q-3 -31 -3 -68v-150q0 -191 -5 -270q-8 -109 -8 -178v-48h289t159 5h13l8 3h89l13 2h39v-87h-38q-12 0 -57 -5h-31q-98 -10 -218 -10h-64l-12 2h-185l-48 -7h-49zM236 2097l40 82l164 -121l100 -69l-46 -72l-212 151z" />
<glyph unicode="&#xe9;" horiz-adv-x="842" d="M46 3l3 58q5 13 5 19v120q0 25 2 53v13q13 43 13 330v152q0 38 3 69v89l2 21v30l-2 16v97l-11 95q-10 56 -10 128l3 36v117q0 21 2 44l8 90l8 76v94l2 91v10l3 18v15h84l8 -2h211t142 -3l144 -8q10 -3 33 -2h15l64 2v-94q-8 -3 -18 -3h-43l-97 8h-11q-59 0 -98 5 q-64 8 -201 8h-141l-13 2q-2 -24 -2 -85v-82q0 -20 -6 -50l-7 -93v-93l-3 -76v-93q0 -32 13 -65l28 5q30 5 87 5l138 10h84l87 -8h106l-3 -87h-115q-13 0 -25.5 -1t-22.5 4h2q-18 5 -36 5h-77l-138 -10q-34 0 -65.5 -6.5t-36.5 -6.5h-10v-105l2 -8v-105l-2 -38 q-3 -31 -3 -68v-150q0 -191 -5 -270q-8 -109 -8 -178v-48h289t159 5h13l8 3h89l13 2h39v-87h-38q-12 0 -57 -5h-31q-98 -10 -218 -10h-64l-12 2h-185l-48 -7h-49zM248 2010l133 99l105 82l39 21l38 -77l-115 -79l-146 -118z" />
<glyph unicode="&#xea;" horiz-adv-x="842" d="M46 3l3 58q5 13 5 19v120q0 25 2 53v13q13 43 13 330v152q0 38 3 69v89l2 21v30l-2 16v97l-11 95q-10 56 -10 128l3 36v117q0 21 2 44l8 90l8 76v94l2 91v10l3 18v15h84l8 -2h211t142 -3l144 -8q10 -3 33 -2h15l64 2v-94q-8 -3 -18 -3h-43l-97 8h-11q-59 0 -98 5 q-64 8 -201 8h-141l-13 2q-2 -24 -2 -85v-82q0 -20 -6 -50l-7 -93v-93l-3 -76v-93q0 -32 13 -65l28 5q30 5 87 5l138 10h84l87 -8h106l-3 -87h-115q-13 0 -25.5 -1t-22.5 4h2q-18 5 -36 5h-77l-138 -10q-34 0 -65.5 -6.5t-36.5 -6.5h-10v-105l2 -8v-105l-2 -38 q-3 -31 -3 -68v-150q0 -191 -5 -270q-8 -109 -8 -178v-48h289t159 5h13l8 3h89l13 2h39v-87h-38q-12 0 -57 -5h-31q-98 -10 -218 -10h-64l-12 2h-185l-48 -7h-49zM218 2015q51 26 67.5 38.5t34.5 25.5q75 40 90 43l20 23l202 -138l-20 -92l-85 61q-33 23 -58.5 42.5 t-38.5 26.5q-13 -8 -33.5 -19t-39.5 -25q-85 -63 -137 -91z" />
<glyph unicode="&#xeb;" horiz-adv-x="842" d="M46 3l3 58q5 13 5 19v120q0 25 2 53v13q13 43 13 330v152q0 38 3 69v89l2 21v30l-2 16v97l-11 95q-10 56 -10 128l3 36v117q0 21 2 44l8 90l8 76v94l2 91v10l3 18v15h84l8 -2h211t142 -3l144 -8q10 -3 33 -2h15l64 2v-94q-8 -3 -18 -3h-43l-97 8h-11q-59 0 -98 5 q-64 8 -201 8h-141l-13 2q-2 -24 -2 -85v-82q0 -20 -6 -50l-7 -93v-93l-3 -76v-93q0 -32 13 -65l28 5q30 5 87 5l138 10h84l87 -8h106l-3 -87h-115q-13 0 -25.5 -1t-22.5 4h2q-18 5 -36 5h-77l-138 -10q-34 0 -65.5 -6.5t-36.5 -6.5h-10v-105l2 -8v-105l-2 -38 q-3 -31 -3 -68v-150q0 -191 -5 -270q-8 -109 -8 -178v-48h289t159 5h13l8 3h89l13 2h39v-87h-38q-12 0 -57 -5h-31q-98 -10 -218 -10h-64l-12 2h-185l-48 -7h-49zM205 1933l10 87l172 -8v-87q-26 3 -48 3h-62t-54 5h-18zM445 2012h192l-2 -87q-23 3 -59 3h-56 q-33 0 -46 -1.5t-26 1.5z" />
<glyph unicode="&#xec;" horiz-adv-x="268" d="M-18 2053l21 90l171 -118l133 -102l-51 -64l-120 89l-26 18q-15 15 -26.5 20.5t-24.5 15.5zM56 576v54q0 25 6 86q22 204 22 299v135l8 245v74l-2 16l7 376h87q0 -103 -7 -159v-217l2 -16v-74q0 -94 -4 -149t-3.5 -95t0.5 -118t-13 -244.5t-13 -245.5t5 -164v-87l3 -97 v-64q0 -36 -3 -95l-90 2q6 56 6 157z" />
<glyph unicode="&#xed;" horiz-adv-x="268" d="M-23 1894l131 90l23 18q57 45 138 105l28 -90l-85 -56q-5 -5 -11 -7.5t-12 -7.5l-25 -21l-138 -100zM56 576v54q0 25 6 86q22 204 22 299v135l8 245v74l-2 16l7 376h87q0 -103 -7 -159v-217l2 -16v-74q0 -94 -4 -149t-3.5 -95t0.5 -118t-13 -244.5t-13 -245.5t5 -164v-87 l3 -97v-64q0 -36 -3 -95l-90 2q6 56 6 157z" />
<glyph unicode="&#xee;" horiz-adv-x="268" d="M-61 1917l94 57l23 13q20 13 43.5 21.5t31.5 11.5l17 23l198 -136l-21 -92q-121 90 -182 128q-3 -3 -5 -3l-48 -30q-92 -69 -149 -100zM56 576v54q0 25 6 86q22 204 22 299v135l8 245v74l-2 16l7 376h87q0 -103 -7 -159v-217l2 -16v-74q0 -94 -4 -149t-3.5 -95t0.5 -118 t-13 -244.5t-13 -245.5t5 -164v-87l3 -97v-64q0 -36 -3 -95l-90 2q6 56 6 157z" />
<glyph unicode="&#xef;" horiz-adv-x="268" d="M-77 1894l10 87l172 -7v-87q-17 2 -65 2h-58l-41 5h-18zM56 576v54q0 25 6 86q22 204 22 299v135l8 245v74l-2 16l7 376h87q0 -103 -7 -159v-217l2 -16v-74q0 -94 -4 -149t-3.5 -95t0.5 -118t-13 -244.5t-13 -245.5t5 -164v-87l3 -97v-64q0 -36 -3 -95l-90 2q6 56 6 157z M164 1974h192l-3 -87q-15 2 -81.5 2t-79.5 -1t-26 1z" />
<glyph unicode="&#xf1;" horiz-adv-x="1131" d="M67 236q0 132 5 192q3 36 4 60t4 32q4 17 12 74l3 8q7 78 7 245v374q0 326 21 525l-3 41q-3 3 -1.5 8t1.5 10v43h90l51 -102l49 -95l15 -36v3q15 -20 21 -31l20 -36l128 -312q10 -20 18 -44.5t20 -52.5q16 -37 57 -125q84 -180 120 -276q55 -146 72 -183 q52 -142 105 -266q0 187 12 297q21 206 21 310v127q0 21 -3 44q0 94 -5 154v15q-5 85 -5 213v10q0 64 -7 141l-3 7q-5 31 -5 64v64q0 91 15 144l87 -3q-18 -64 -18 -134.5t8 -141.5v-39q8 -27 8 -102v-10q0 -143 7 -282l6 -100q3 -20 2.5 -47t-0.5 -82q0 -70 -15 -252 q-21 -255 -21 -379v-179q0 -54 3 -93h-97l-57 174q-15 33 -30.5 73t-32.5 83q-32 76 -67.5 169t-64 160.5t-56.5 137.5l-53 138l-95 207l-10 28q-14 23 -32 73q-55 146 -99 232l-38 79l-46 72q-8 -110 -8 -220v-597q0 -83 -5 -235v-26l-10 -79q-11 -44 -13.5 -91.5 t-2.5 -160t26 -211.5l-90 -3q-25 107 -25 195zM292 1894q90 90 151 90q43 0 61.5 -13t25.5 -13l38 -15q33 -15 105 31l39 28l56 -69q-72 -44 -133.5 -64.5t-81.5 -18t-26 8.5l-18 15l3 -3q-10 0 -20 5q-32 16 -47 16t-64 -39z" />
<glyph unicode="&#xf2;" horiz-adv-x="1656" d="M54 823.5q0 116.5 10 196.5q28 219 113 362q10 10 10 16l20 36q78 123 141 181l46 46v-2l51 46q79 60 120 82q127 67 203 74q8 0 23 3q25 5 77 5q75 0 164 -31l36 -13q46 -18 92 -37t105 -64q133 -102 187 -239q76 -255 76 -450q0 -402 -187 -656q-183 -229 -431 -310 q-86 -28 -159 -28q-104 0 -188 54l-23 13q-10 0 -13 7l-10 8l3 -3q-10 3 -18 10.5t-8 12.5q-32 25 -54 34l-18 12v-2l-20 13q-10 10 -28 18q-54 22 -108 76q-113 108 -162.5 260.5t-49.5 269zM138 824.5q0 -107.5 42.5 -242t139.5 -224.5q38 -36 73 -56t73 -41l110 -74 q96 -53 159 -56h5q137 0 296 92q138 80 234 205q72 107 123 276q48 161 48 305q0 91 -26.5 229.5t-48.5 213.5q-40 135 -158 207q-86 59 -262 107q-45 13 -64 13q-38 0 -60 -5q-13 -3 -24.5 -2.5t-32 -3.5t-70.5 -24.5t-86 -41.5q-81 -37 -135 -97l-36 -33l-31 -23v2 q-74 -65 -120 -158l-36 -52q-66 -108 -103 -337q-10 -72 -10 -179.5zM686 2115l21 97q93 -72 156 -113l-5 -7q6 6 41 -11h-3q5 -5 26 -15q24 -11 151 -102l23 -21l-49 -64l-49 33q-38 28 -79 54t-77 49l-102 66q5 0 -9 6.5t-22 11.5z" />
<glyph unicode="&#xf3;" horiz-adv-x="1656" d="M54 823.5q0 116.5 10 196.5q28 219 113 362q10 10 10 16l20 36q78 123 141 181l46 46v-2l51 46q79 60 120 82q127 67 203 74q8 0 23 3q25 5 77 5q75 0 164 -31l36 -13q46 -18 92 -37t105 -64q133 -102 187 -239q76 -255 76 -450q0 -402 -187 -656q-183 -229 -431 -310 q-86 -28 -159 -28q-104 0 -188 54l-23 13q-10 0 -13 7l-10 8l3 -3q-10 3 -18 10.5t-8 12.5q-32 25 -54 34l-18 12v-2l-20 13q-10 10 -28 18q-54 22 -108 76q-113 108 -162.5 260.5t-49.5 269zM138 824.5q0 -107.5 42.5 -242t139.5 -224.5q38 -36 73 -56t73 -41l110 -74 q96 -53 159 -56h5q137 0 296 92q138 80 234 205q72 107 123 276q48 161 48 305q0 91 -26.5 229.5t-48.5 213.5q-40 135 -158 207q-86 59 -262 107q-45 13 -64 13q-38 0 -60 -5q-13 -3 -24.5 -2.5t-32 -3.5t-70.5 -24.5t-86 -41.5q-81 -37 -135 -97l-36 -33l-31 -23v2 q-74 -65 -120 -158l-36 -52q-66 -108 -103 -337q-10 -72 -10 -179.5zM681 1935q100 80 166 118l218 138l26 -87l-369 -233z" />
<glyph unicode="&#xf4;" horiz-adv-x="1656" d="M54 823.5q0 116.5 10 196.5q28 219 113 362q10 10 10 16l20 36q78 123 141 181l46 46v-2l51 46q79 60 120 82q127 67 203 74q8 0 23 3q25 5 77 5q75 0 164 -31l36 -13q46 -18 92 -37t105 -64q133 -102 187 -239q76 -255 76 -450q0 -402 -187 -656q-183 -229 -431 -310 q-86 -28 -159 -28q-104 0 -188 54l-23 13q-10 0 -13 7l-10 8l3 -3q-10 3 -18 10.5t-8 12.5q-32 25 -54 34l-18 12v-2l-20 13q-10 10 -28 18q-54 22 -108 76q-113 108 -162.5 260.5t-49.5 269zM138 824.5q0 -107.5 42.5 -242t139.5 -224.5q38 -36 73 -56t73 -41l110 -74 q96 -53 159 -56h5q137 0 296 92q138 80 234 205q72 107 123 276q48 161 48 305q0 91 -26.5 229.5t-48.5 213.5q-40 135 -158 207q-86 59 -262 107q-45 13 -64 13q-38 0 -60 -5q-13 -3 -24.5 -2.5t-32 -3.5t-70.5 -24.5t-86 -41.5q-81 -37 -135 -97l-36 -33l-31 -23v2 q-74 -65 -120 -158l-36 -52q-66 -108 -103 -337q-10 -72 -10 -179.5zM535 1961l10 3l28 15q23 13 50 28q51 29 63 33h-2q10 3 30 18l136 77l276 -184l-20 -85l-251 169q-13 -8 -25.5 -14t-30.5 -16.5t-45 -25.5t-50 -31l-166 -92z" />
<glyph unicode="&#xf5;" horiz-adv-x="1656" d="M54 823.5q0 116.5 10 196.5q28 219 113 362q10 10 10 16l20 36q78 123 141 181l46 46v-2l51 46q79 60 120 82q127 67 203 74q8 0 23 3q25 5 77 5q75 0 164 -31l36 -13q46 -18 92 -37t105 -64q133 -102 187 -239q76 -255 76 -450q0 -402 -187 -656q-183 -229 -431 -310 q-86 -28 -159 -28q-104 0 -188 54l-23 13q-10 0 -13 7l-10 8l3 -3q-10 3 -18 10.5t-8 12.5q-32 25 -54 34l-18 12v-2l-20 13q-10 10 -28 18q-54 22 -108 76q-113 108 -162.5 260.5t-49.5 269zM138 824.5q0 -107.5 42.5 -242t139.5 -224.5q38 -36 73 -56t73 -41l110 -74 q96 -53 159 -56h5q137 0 296 92q138 80 234 205q72 107 123 276q48 161 48 305q0 91 -26.5 229.5t-48.5 213.5q-40 135 -158 207q-86 59 -262 107q-45 13 -64 13q-38 0 -60 -5q-13 -3 -24.5 -2.5t-32 -3.5t-70.5 -24.5t-86 -41.5q-81 -37 -135 -97l-36 -33l-31 -23v2 q-74 -65 -120 -158l-36 -52q-66 -108 -103 -337q-10 -72 -10 -179.5zM581 1971q90 79 147.5 97t85.5 10q45 -14 77 -39q64 -47 100 -55q49 -11 171 84l5 -104q-145 -113 -248 -50q-31 19 -59 42v-3q-39 30 -63 37t-56 -9.5t-96 -75.5z" />
<glyph unicode="&#xf6;" horiz-adv-x="1656" d="M54 823.5q0 116.5 10 196.5q28 219 113 362q10 10 10 16l20 36q78 123 141 181l46 46v-2l51 46q79 60 120 82q127 67 203 74q8 0 23 3q25 5 77 5q75 0 164 -31l36 -13q46 -18 92 -37t105 -64q133 -102 187 -239q76 -255 76 -450q0 -402 -187 -656q-183 -229 -431 -310 q-86 -28 -159 -28q-104 0 -188 54l-23 13q-10 0 -13 7l-10 8l3 -3q-10 3 -18 10.5t-8 12.5q-32 25 -54 34l-18 12v-2l-20 13q-10 10 -28 18q-54 22 -108 76q-113 108 -162.5 260.5t-49.5 269zM138 824.5q0 -107.5 42.5 -242t139.5 -224.5q38 -36 73 -56t73 -41l110 -74 q96 -53 159 -56h5q137 0 296 92q138 80 234 205q72 107 123 276q48 161 48 305q0 91 -26.5 229.5t-48.5 213.5q-40 135 -158 207q-86 59 -262 107q-45 13 -64 13q-38 0 -60 -5q-13 -3 -24.5 -2.5t-32 -3.5t-70.5 -24.5t-86 -41.5q-81 -37 -135 -97l-36 -33l-31 -23v2 q-74 -65 -120 -158l-36 -52q-66 -108 -103 -337q-10 -72 -10 -179.5zM604 1940v93l248 -8v-92q-15 2 -109 2t-139 5zM922 1938v97q64 -10 110 -10h140l-2 -92q-17 2 -93 2h-108q-32 0 -47 3z" />
<glyph unicode="&#xf9;" horiz-adv-x="1105" d="M77 1178v30q0 147 5 259v51l2 28v21q6 138 6 294h84v-139q0 -78 -2 -140v-26l-3 -33v-56l-3 -67v-222q0 -162 13 -235t15.5 -124t5.5 -95v-46q0 -236 71 -409q49 -98 103 -121q0 -5 19.5 -7.5t38 -2.5t59.5 15.5t80 28.5q132 84 222 404q75 267 75 697v101q0 50 -5 120 q-8 112 -8 383h85q0 -276 6 -362.5t6 -142.5v-99q0 -455 -74 -730q-65 -240 -158 -362q-36 -48 -91.5 -73t-105 -46t-98.5 -21t-79 13h-6q-103 37 -156 166q-44 119 -59 297q-5 33 -5 110l-2 16v25q-3 49 -5.5 108t-14.5 118q-21 97 -21 274zM320 2068l18 90l164 -120 l133 -103l-44 -64l-125 87q-36 18 -45 28.5t-23 19.5q-25 16 -78 62z" />
<glyph unicode="&#xfa;" horiz-adv-x="1105" d="M77 1178v30q0 147 5 259v51l2 28v21q6 138 6 294h84v-139q0 -78 -2 -140v-26l-3 -33v-56l-3 -67v-222q0 -162 13 -235t15.5 -124t5.5 -95v-46q0 -236 71 -409q49 -98 103 -121q0 -5 19.5 -7.5t38 -2.5t59.5 15.5t80 28.5q132 84 222 404q75 267 75 697v101q0 50 -5 120 q-8 112 -8 383h85q0 -276 6 -362.5t6 -142.5v-99q0 -455 -74 -730q-65 -240 -158 -362q-36 -48 -91.5 -73t-105 -46t-98.5 -21t-79 13h-6q-103 37 -156 166q-44 119 -59 297q-5 33 -5 110l-2 16v25q-3 49 -5.5 108t-14.5 118q-21 97 -21 274zM333 1905l135 105l159 112 l28 -92l-151 -100l-117 -92z" />
<glyph unicode="&#xfb;" horiz-adv-x="1105" d="M77 1178v30q0 147 5 259v51l2 28v21q6 138 6 294h84v-139q0 -78 -2 -140v-26l-3 -33v-56l-3 -67v-222q0 -162 13 -235t15.5 -124t5.5 -95v-46q0 -236 71 -409q49 -98 103 -121q0 -5 19.5 -7.5t38 -2.5t59.5 15.5t80 28.5q132 84 222 404q75 267 75 697v101q0 50 -5 120 q-8 112 -8 383h85q0 -276 6 -362.5t6 -142.5v-99q0 -455 -74 -730q-65 -240 -158 -362q-36 -48 -91.5 -73t-105 -46t-98.5 -21t-79 13h-6q-103 37 -156 166q-44 119 -59 297q-5 33 -5 110l-2 16v25q-3 49 -5.5 108t-14.5 118q-21 97 -21 274zM300 1951l74 43q3 0 6.5 2.5 t8.5 5.5t8 5l43 31q10 5 19 12.5t20 15.5l20 15l218 -148l-59 -64q-86 67 -154 110q-5 -5 -7 -5l-49 -28q-13 -10 -33.5 -24.5t-42 -30t-41 -27t-29.5 -18.5z" />
<glyph unicode="&#xfc;" horiz-adv-x="1105" d="M77 1178v30q0 147 5 259v51l2 28v21q6 138 6 294h84v-139q0 -78 -2 -140v-26l-3 -33v-56l-3 -67v-222q0 -162 13 -235t15.5 -124t5.5 -95v-46q0 -236 71 -409q49 -98 103 -121q0 -5 19.5 -7.5t38 -2.5t59.5 15.5t80 28.5q132 84 222 404q75 267 75 697v101q0 50 -5 120 q-8 112 -8 383h85q0 -276 6 -362.5t6 -142.5v-99q0 -455 -74 -730q-65 -240 -158 -362q-36 -48 -91.5 -73t-105 -46t-98.5 -21t-79 13h-6q-103 37 -156 166q-44 119 -59 297q-5 33 -5 110l-2 16v25q-3 49 -5.5 108t-14.5 118q-21 97 -21 274zM236 1930v92l212 -5v-92 q-23 3 -66 3h-121zM540 1923v97q51 -8 61.5 -5.5t25.5 2.5h141l-3 -92q-26 3 -68 3h-65q-36 0 -56 -4t-36 -1z" />
<glyph unicode="&#x152;" horiz-adv-x="2298" d="M54 823.5q0 116.5 10 196.5q28 219 113 362q10 10 10 16l20 36q78 123 141 181l46 46v-2l51 46q79 60 120 82q127 67 203 74q8 0 23 3q25 5 77 5q75 0 164 -31l36 -13q46 -18 92 -37t105 -64q133 -102 187 -239q76 -255 76 -450q0 -402 -187 -656q-183 -229 -431 -310 q-86 -28 -159 -28q-104 0 -188 54l-23 13q-10 0 -13 7l-10 8l3 -3q-10 3 -18 10.5t-8 12.5q-32 25 -54 34l-18 12v-2l-20 13q-10 10 -28 18q-54 22 -108 76q-113 108 -162.5 260.5t-49.5 269zM138 824.5q0 -107.5 42.5 -242t139.5 -224.5q38 -36 73 -56t73 -41l110 -74 q96 -53 159 -56h5q137 0 296 92q138 80 234 205q72 107 123 276q48 161 48 305q0 91 -26.5 229.5t-48.5 213.5q-40 135 -158 207q-86 59 -262 107q-45 13 -64 13q-38 0 -60 -5q-13 -3 -24.5 -2.5t-32 -3.5t-70.5 -24.5t-86 -41.5q-81 -37 -135 -97l-36 -33l-31 -23v2 q-74 -65 -120 -158l-36 -52q-66 -108 -103 -337q-10 -72 -10 -179.5zM1495 3l3 58q5 13 5 19v120q0 25 2 53v13q13 43 13 330v152q0 38 3 69v89l2 21v30l-2 16v97l-11 95q-10 56 -10 128l3 36v117q0 21 2 44l8 90l8 76v94l2 91v10l3 18v15h84l8 -2h211t142 -3l144 -8 q10 -3 33 -2h15l64 2v-94q-8 -3 -18 -3h-43l-97 8h-11q-59 0 -98 5q-64 8 -201 8h-141l-13 2q-2 -24 -2 -85v-82q0 -20 -6 -50l-7 -93v-93l-3 -76v-93q0 -32 13 -65l28 5q30 5 87 5l138 10h84l87 -8h106l-3 -87h-115q-13 0 -25.5 -1t-22.5 4h2q-18 5 -36 5h-77l-138 -10 q-34 0 -65.5 -6.5t-36.5 -6.5h-10v-105l2 -8v-105l-2 -38q-3 -31 -3 -68v-150q0 -191 -5 -270q-8 -109 -8 -178v-48h289t159 5h13l8 3h89l13 2h39v-87h-38q-12 0 -57 -5h-31q-98 -10 -218 -10h-64l-12 2h-185l-48 -7h-49z" />
<glyph unicode="&#x153;" horiz-adv-x="2298" d="M54 823.5q0 116.5 10 196.5q28 219 113 362q10 10 10 16l20 36q78 123 141 181l46 46v-2l51 46q79 60 120 82q127 67 203 74q8 0 23 3q25 5 77 5q75 0 164 -31l36 -13q46 -18 92 -37t105 -64q133 -102 187 -239q76 -255 76 -450q0 -402 -187 -656q-183 -229 -431 -310 q-86 -28 -159 -28q-104 0 -188 54l-23 13q-10 0 -13 7l-10 8l3 -3q-10 3 -18 10.5t-8 12.5q-32 25 -54 34l-18 12v-2l-20 13q-10 10 -28 18q-54 22 -108 76q-113 108 -162.5 260.5t-49.5 269zM138 824.5q0 -107.5 42.5 -242t139.5 -224.5q38 -36 73 -56t73 -41l110 -74 q96 -53 159 -56h5q137 0 296 92q138 80 234 205q72 107 123 276q48 161 48 305q0 91 -26.5 229.5t-48.5 213.5q-40 135 -158 207q-86 59 -262 107q-45 13 -64 13q-38 0 -60 -5q-13 -3 -24.5 -2.5t-32 -3.5t-70.5 -24.5t-86 -41.5q-81 -37 -135 -97l-36 -33l-31 -23v2 q-74 -65 -120 -158l-36 -52q-66 -108 -103 -337q-10 -72 -10 -179.5zM1495 3l3 58q5 13 5 19v120q0 25 2 53v13q13 43 13 330v152q0 38 3 69v89l2 21v30l-2 16v97l-11 95q-10 56 -10 128l3 36v117q0 21 2 44l8 90l8 76v94l2 91v10l3 18v15h84l8 -2h211t142 -3l144 -8 q10 -3 33 -2h15l64 2v-94q-8 -3 -18 -3h-43l-97 8h-11q-59 0 -98 5q-64 8 -201 8h-141l-13 2q-2 -24 -2 -85v-82q0 -20 -6 -50l-7 -93v-93l-3 -76v-93q0 -32 13 -65l28 5q30 5 87 5l138 10h84l87 -8h106l-3 -87h-115q-13 0 -25.5 -1t-22.5 4h2q-18 5 -36 5h-77l-138 -10 q-34 0 -65.5 -6.5t-36.5 -6.5h-10v-105l2 -8v-105l-2 -38q-3 -31 -3 -68v-150q0 -191 -5 -270q-8 -109 -8 -178v-48h289t159 5h13l8 3h89l13 2h39v-87h-38q-12 0 -57 -5h-31q-98 -10 -218 -10h-64l-12 2h-185l-48 -7h-49z" />
<glyph unicode="&#x2c6;" horiz-adv-x="599" d="M92 1718l66 33q30 15 48 30q30 22 83 55l11 2q3 0 5 3l199 -133l-20 -90l-115 84l-44 29l-18 15q-13 -8 -30.5 -19.5t-30.5 -16.5v3q-64 -55 -151 -98z" />
<glyph unicode="&#x2000;" horiz-adv-x="1106" />
<glyph unicode="&#x2001;" horiz-adv-x="2212" />
<glyph unicode="&#x2002;" horiz-adv-x="1106" />
<glyph unicode="&#x2003;" horiz-adv-x="2212" />
<glyph unicode="&#x2004;" horiz-adv-x="737" />
<glyph unicode="&#x2005;" horiz-adv-x="553" />
<glyph unicode="&#x2006;" horiz-adv-x="368" />
<glyph unicode="&#x2007;" horiz-adv-x="368" />
<glyph unicode="&#x2008;" horiz-adv-x="276" />
<glyph unicode="&#x2009;" horiz-adv-x="442" />
<glyph unicode="&#x200a;" horiz-adv-x="122" />
<glyph unicode="&#x2010;" horiz-adv-x="721" d="M33 1009h272q31 -6 52.5 -5.5t31.5 0.5h274v-90h-276l-351 2z" />
<glyph unicode="&#x2011;" horiz-adv-x="721" d="M33 1009h272q31 -6 52.5 -5.5t31.5 0.5h274v-90h-276l-351 2z" />
<glyph unicode="&#x2012;" horiz-adv-x="721" d="M33 1009h272q31 -6 52.5 -5.5t31.5 0.5h274v-90h-276l-351 2z" />
<glyph unicode="&#x2013;" horiz-adv-x="599" d="M44 906v87h289l18 3q29 0 66 -5h11q73 -9 110 -3v-87h-73l-176 8l-15 -3h-230z" />
<glyph unicode="&#x2014;" horiz-adv-x="862" d="M46 906v87h397l31 3h58l18 -3h21q25 -2 148 -2h64v-87h-74q-56 0 -100 2h-43l-28 3h-118l-26 -3h-348z" />
<glyph unicode="&#x2018;" horiz-adv-x="273" d="M77 1784v59h87v-59q0 -88 10 -133.5t11.5 -67.5t5.5 -51t6 -55h-84l-11 103l-2 12q-23 83 -23 192z" />
<glyph unicode="&#x2019;" horiz-adv-x="307" d="M79 1454q19 104 27.5 175t13.5 102l16 112l97 -2q-14 -51 -36 -172l-2 -23q-3 -8 -3 -15l-8 -54v-18q0 -9 -5 -36v-10q-5 -33 -5 -59h-95z" />
<glyph unicode="&#x201a;" horiz-adv-x="307" d="M79 20q17 98 26.5 172t14.5 105l16 113l97 -3q-15 -53 -36 -171l-2 -24q-3 -8 -3 -15l-8 -54v-17q0 -11 -5 -36v-11q-5 -30 -5 -59h-95z" />
<glyph unicode="&#x201c;" horiz-adv-x="389" d="M77 1784v59h89v-59q0 -76 23 -189l11 -118h-87l-11 103l-2 12q-23 83 -23 192zM212 1843h90q13 -219 41 -327l-84 -3q-33 165 -47 330z" />
<glyph unicode="&#x201d;" horiz-adv-x="460" d="M90 1503q0 96 28 169q0 3 5 7h-3q26 81 26 110v52h84v-52q0 -34 -15 -97l-3 -20l-7 -26q-26 -86 -26 -169h-64zM238 1477q5 33 10 71.5t10.5 73t13 86t15.5 94.5l7 41l87 -2q-17 -75 -22.5 -130t-10.5 -80l-8 -51l-7 -70q-5 -17 -5 -56h-62z" />
<glyph unicode="&#x201e;" horiz-adv-x="417" d="M56 15q0 44 16 101q25 95 25 120v48h77l-2 -48q0 -23 -13 -87q-23 -113 -23 -162h-39zM172 -10v20q0 5 2 10l10 75q8 67 31 189h82l-10 -79q-5 -36 -11.5 -63t-6.5 -50l-13 -130h-56z" />
<glyph unicode="&#x202f;" horiz-adv-x="442" />
<glyph unicode="&#x2039;" horiz-adv-x="504" d="M5 957l95 111l33 35h-2l46 52l212 215l56 -72l-84 -77l-79 -79l-44 -51q-23 -20 -38.5 -39.5t-15.5 -22.5l-41 -41q-12 -12 -12 -18l-16 -15v-8l113 -133h-3l95 -110q-5 8 5 -2.5t19 -20.5q54 -60 114 -120l-51 -46l-20 -16l-100 113l-13 20l-44 46h3l-27 27 q-19 19 -34 40h2l-23 28l-20 18l-49 56z" />
<glyph unicode="&#x203a;" horiz-adv-x="524" d="M28 1257l41 87q49 -22 62 -33l30 -34q46 -54 92 -99l26 -23l82 -82l51 -64l54 -49l23 -23l-41 -41q-41 -29 -77 -79q-5 -5 -7.5 -11.5t-7.5 -9.5l-10 -15l-93 -108h3l-14 -17q-6 -8 -19 -35q-22 -47 -151 -155l-26 95q62 54 126 125q37 71 112 146h-2l15 28q3 5 6.5 7.5 t6.5 8.5l51 61l-28 33h2l-189 192l-59 64q-24 24 -59 31z" />
<glyph unicode="&#x205f;" horiz-adv-x="553" />
<glyph unicode="&#x20ac;" horiz-adv-x="1013" d="M13 835v84l36 3q69 -3 84 -3h26l2 92h-32q-24 0 -111 3v82l122 2h26v31q3 33 5.5 65t10.5 60q26 195 74 282q58 113 128 189h-3q38 44 74.5 69.5t87.5 30.5h56q3 0 5 3q69 0 103 -10q66 -43 115 -126q62 -98 87 -251h-97q-15 136 -59 205q-36 65 -72 79q-41 20 -77 21 l-13 -3h-43q-53 -10 -108 -79q-36 -36 -105 -169q-26 -44 -39.5 -116.5t-24 -129t-14.5 -86t-9 -65.5h92l16 -2h148l16 -3h120q24 0 69 5l79 8q0 -3 3 -3h10q3 -3 39 -2l-3 -85l-54 3l-89 -10h-177l-15 2h-256v-41l-3 -18v-36h33l13 -2h62l15 -3h200q27 0 59 5l66 8h57v-84 h-54q-22 0 -62 -5l-64 -8h-56l-13 2h-46q-26 3 -50 3h-165v-95l3 -13q0 -166 28 -255.5t49 -142.5q49 -118 104 -167q19 -25 52 -36h-3q5 -5 10 -5q29 -16 47 -16h26q9 0 22 1.5t23 1.5t17 1l44 30v-3q30 27 38.5 33t13.5 21q16 16 56 143l82 -2q-18 -85 -36 -128 q-5 -5 -5 -8l-15 -38q-11 -20 -62 -64l-23 -26q-43 -33 -56 -38q-18 -8 -59 -8q-13 -3 -31 -3h-25q-51 0 -75 11l-18 12l-5 8q-5 0 -20.5 10t-63 50t-72.5 86t-51 97q-56 142 -69 264q-10 45 -10 182l-3 7l-3 93h-23q-15 0 -56 5z" />
<glyph unicode="&#xe000;" horiz-adv-x="1856" d="M0 0v1856h1856v-1856h-1856z" />
</font>
</defs>
</svg>
